<?xml version="1.0" encoding="UTF-8"?>
<svg width="1200px" height="600px" viewBox="0 0 1200 600" version="1.1" xmlns="http://www.w3.org/2000/svg" xmlns:xlink="http://www.w3.org/1999/xlink">
    <!-- Generator: Sketch 46.2 (44496) - http://www.bohemiancoding.com/sketch -->
    <title>Group 9</title>
    <desc>Created with Sketch.</desc>
    <defs></defs>
    <g id="Page-1" stroke="none" stroke-width="1" fill="none" fill-rule="evenodd" opacity="0.0299999993">
        <g id="003-Technical" transform="translate(0.000000, -25.000000)" fill="#00C5D7">
            <g id="Group-9" transform="translate(0.000000, 25.000000)">
                <g id="Group-2" transform="translate(29.000000, 0.000000)">
                    <rect id="Rectangle-4" x="0" y="0" width="1" height="600"></rect>
                    <rect id="Rectangle-4" x="20" y="0" width="1" height="600"></rect>
                    <rect id="Rectangle-4" x="40" y="0" width="1" height="600"></rect>
                    <rect id="Rectangle-4" x="60" y="0" width="1" height="600"></rect>
                    <rect id="Rectangle-4" x="80" y="0" width="1" height="600"></rect>
                    <rect id="Rectangle-4" x="100" y="0" width="1" height="600"></rect>
                    <rect id="Rectangle-4" x="120" y="0" width="1" height="600"></rect>
                    <rect id="Rectangle-4" x="140" y="0" width="1" height="600"></rect>
                    <rect id="Rectangle-4" x="160" y="0" width="1" height="600"></rect>
                    <rect id="Rectangle-4" x="180" y="0" width="1" height="600"></rect>
                    <rect id="Rectangle-4" x="200" y="0" width="1" height="600"></rect>
                    <rect id="Rectangle-4" x="220" y="0" width="1" height="600"></rect>
                    <rect id="Rectangle-4" x="240" y="0" width="1" height="600"></rect>
                    <rect id="Rectangle-4" x="260" y="0" width="1" height="600"></rect>
                    <rect id="Rectangle-4" x="280" y="0" width="1" height="600"></rect>
                    <rect id="Rectangle-4" x="300" y="0" width="1" height="600"></rect>
                    <rect id="Rectangle-4" x="320" y="0" width="1" height="600"></rect>
                    <rect id="Rectangle-4" x="340" y="0" width="1" height="600"></rect>
                    <rect id="Rectangle-4" x="360" y="0" width="1" height="600"></rect>
                    <rect id="Rectangle-4" x="380" y="0" width="1" height="600"></rect>
                    <rect id="Rectangle-4" x="400" y="0" width="1" height="600"></rect>
                    <rect id="Rectangle-4" x="420" y="0" width="1" height="600"></rect>
                    <rect id="Rectangle-4" x="440" y="0" width="1" height="600"></rect>
                    <rect id="Rectangle-4" x="460" y="0" width="1" height="600"></rect>
                    <rect id="Rectangle-4" x="480" y="0" width="1" height="600"></rect>
                    <rect id="Rectangle-4" x="500" y="0" width="1" height="600"></rect>
                    <rect id="Rectangle-4" x="520" y="0" width="1" height="600"></rect>
                    <rect id="Rectangle-4" x="540" y="0" width="1" height="600"></rect>
                    <rect id="Rectangle-4" x="560" y="0" width="1" height="600"></rect>
                    <rect id="Rectangle-4" x="580" y="0" width="1" height="600"></rect>
                    <rect id="Rectangle-4" x="600" y="0" width="1" height="600"></rect>
                    <rect id="Rectangle-4" x="620" y="0" width="1" height="600"></rect>
                    <rect id="Rectangle-4" x="640" y="0" width="1" height="600"></rect>
                    <rect id="Rectangle-4" x="660" y="0" width="1" height="600"></rect>
                    <rect id="Rectangle-4" x="680" y="0" width="1" height="600"></rect>
                    <rect id="Rectangle-4" x="700" y="0" width="1" height="600"></rect>
                    <rect id="Rectangle-4" x="720" y="0" width="1" height="600"></rect>
                    <rect id="Rectangle-4" x="740" y="0" width="1" height="600"></rect>
                    <rect id="Rectangle-4" x="760" y="0" width="1" height="600"></rect>
                    <rect id="Rectangle-4" x="780" y="0" width="1" height="600"></rect>
                    <rect id="Rectangle-4" x="800" y="0" width="1" height="600"></rect>
                    <rect id="Rectangle-4" x="820" y="0" width="1" height="600"></rect>
                    <rect id="Rectangle-4" x="840" y="0" width="1" height="600"></rect>
                    <rect id="Rectangle-4" x="860" y="0" width="1" height="600"></rect>
                    <rect id="Rectangle-4" x="880" y="0" width="1" height="600"></rect>
                    <rect id="Rectangle-4" x="900" y="0" width="1" height="600"></rect>
                    <rect id="Rectangle-4" x="920" y="0" width="1" height="600"></rect>
                    <rect id="Rectangle-4" x="940" y="0" width="1" height="600"></rect>
                    <rect id="Rectangle-4" x="960" y="0" width="1" height="600"></rect>
                    <rect id="Rectangle-4" x="980" y="0" width="1" height="600"></rect>
                    <rect id="Rectangle-4" x="1000" y="0" width="1" height="600"></rect>
                    <rect id="Rectangle-4" x="1020" y="0" width="1" height="600"></rect>
                    <rect id="Rectangle-4" x="1040" y="0" width="1" height="600"></rect>
                    <rect id="Rectangle-4" x="1060" y="0" width="1" height="600"></rect>
                    <rect id="Rectangle-4" x="1080" y="0" width="1" height="600"></rect>
                    <rect id="Rectangle-4" x="1100" y="0" width="1" height="600"></rect>
                    <rect id="Rectangle-4" x="1120" y="0" width="1" height="600"></rect>
                    <rect id="Rectangle-4" x="1140" y="0" width="1" height="600"></rect>
                </g>
                <g id="Group-3">
                    <rect id="Rectangle-5" x="0" y="0" width="1200" height="1"></rect>
                    <rect id="Rectangle-5" x="0" y="20" width="1200" height="1"></rect>
                    <rect id="Rectangle-5" x="0" y="40" width="1200" height="1"></rect>
                    <rect id="Rectangle-5" x="0" y="60" width="1200" height="1"></rect>
                    <rect id="Rectangle-5" x="0" y="80" width="1200" height="1"></rect>
                    <rect id="Rectangle-5" x="0" y="100" width="1200" height="1"></rect>
                    <rect id="Rectangle-5" x="0" y="120" width="1200" height="1"></rect>
                    <rect id="Rectangle-5" x="0" y="140" width="1200" height="1"></rect>
                    <rect id="Rectangle-5" x="0" y="160" width="1200" height="1"></rect>
                    <rect id="Rectangle-5" x="0" y="180" width="1200" height="1"></rect>
                    <rect id="Rectangle-5" x="0" y="200" width="1200" height="1"></rect>
                    <rect id="Rectangle-5" x="0" y="220" width="1200" height="1"></rect>
                    <rect id="Rectangle-5" x="0" y="240" width="1200" height="1"></rect>
                    <rect id="Rectangle-5" x="0" y="260" width="1200" height="1"></rect>
                    <rect id="Rectangle-5" x="0" y="280" width="1200" height="1"></rect>
                    <rect id="Rectangle-5" x="0" y="300" width="1200" height="1"></rect>
                    <rect id="Rectangle-5" x="0" y="320" width="1200" height="1"></rect>
                    <rect id="Rectangle-5" x="0" y="340" width="1200" height="1"></rect>
                    <rect id="Rectangle-5" x="0" y="360" width="1200" height="1"></rect>
                    <rect id="Rectangle-5" x="0" y="380" width="1200" height="1"></rect>
                    <rect id="Rectangle-5" x="0" y="400" width="1200" height="1"></rect>
                    <rect id="Rectangle-5" x="0" y="420" width="1200" height="1"></rect>
                    <rect id="Rectangle-5" x="0" y="440" width="1200" height="1"></rect>
                    <rect id="Rectangle-5" x="0" y="460" width="1200" height="1"></rect>
                    <rect id="Rectangle-5" x="0" y="480" width="1200" height="1"></rect>
                    <rect id="Rectangle-5" x="0" y="500" width="1200" height="1"></rect>
                    <rect id="Rectangle-5" x="0" y="520" width="1200" height="1"></rect>
                    <rect id="Rectangle-5" x="0" y="540" width="1200" height="1"></rect>
                    <rect id="Rectangle-5" x="0" y="560" width="1200" height="1"></rect>
                    <rect id="Rectangle-5" x="0" y="580" width="1200" height="1"></rect>
                </g>
            </g>
        </g>
    </g>
</svg>