<?xml version="1.0" encoding="UTF-8"?>
<svg width="26px" height="20px" viewBox="0 0 26 20" version="1.1" xmlns="http://www.w3.org/2000/svg" xmlns:xlink="http://www.w3.org/1999/xlink">
    <!-- Generator: Sketch 46.2 (44496) - http://www.bohemiancoding.com/sketch -->
    <title>icn_social_email</title>
    <desc>Created with Sketch.</desc>
    <defs></defs>
    <g id="Page-1" stroke="none" stroke-width="1" fill="none" fill-rule="evenodd" opacity="0.6">
        <g id="Home" transform="translate(-1130.000000, -585.000000)" fill-rule="nonzero" fill="#FFFFFF">
            <g id="icn_social_email" transform="translate(1130.000000, 585.000000)">
                <path d="M23.6363636,17.7272727 L23.6363636,6.81818182 C23.3333333,7.15909091 23.0066288,7.47159091 22.65625,7.75568182 C20.1183712,9.70643939 18.1013258,11.3068182 16.6051136,12.5568182 C16.1221591,12.9640152 15.7291667,13.28125 15.4261364,13.5085227 C15.1231061,13.7357955 14.7135417,13.9654356 14.1974432,14.1974432 C13.6813447,14.4294508 13.1960227,14.5454545 12.7414773,14.5454545 L12.7130682,14.5454545 C12.2585227,14.5454545 11.7732008,14.4294508 11.2571023,14.1974432 C10.7410038,13.9654356 10.3314394,13.7357955 10.0284091,13.5085227 C9.72537879,13.28125 9.33238636,12.9640152 8.84943182,12.5568182 C7.3532197,11.3068182 5.33617424,9.70643939 2.79829545,7.75568182 C2.44791667,7.47159091 2.12121212,7.15909091 1.81818182,6.81818182 L1.81818182,17.7272727 C1.81818182,17.8503788 1.86316288,17.9569129 1.953125,18.046875 C2.04308712,18.1368371 2.14962121,18.1818182 2.27272727,18.1818182 L23.1818182,18.1818182 C23.3049242,18.1818182 23.4114583,18.1368371 23.5014205,18.046875 C23.5913826,17.9569129 23.6363636,17.8503788 23.6363636,17.7272727 Z M23.6363636,2.79829545 L23.6363636,2.45028409 L23.6292614,2.265625 L23.5866477,2.08806818 L23.5085227,1.96022727 L23.3806818,1.85369318 L23.1818182,1.81818182 L2.27272727,1.81818182 C2.14962121,1.81818182 2.04308712,1.86316288 1.953125,1.953125 C1.86316288,2.04308712 1.81818182,2.14962121 1.81818182,2.27272727 C1.81818182,3.86363636 2.51420455,5.20833333 3.90625,6.30681818 C5.73390152,7.74621212 7.63257576,9.24715909 9.60227273,10.8096591 C9.65909091,10.8570076 9.82481061,10.9966856 10.0994318,11.2286932 C10.374053,11.4607008 10.5918561,11.6382576 10.7528409,11.7613636 C10.9138258,11.8844697 11.1245265,12.0336174 11.3849432,12.2088068 C11.6453598,12.3839962 11.8844697,12.5142045 12.1022727,12.5994318 C12.3200758,12.6846591 12.5236742,12.7272727 12.7130682,12.7272727 L12.7414773,12.7272727 C12.9308712,12.7272727 13.1344697,12.6846591 13.3522727,12.5994318 C13.5700758,12.5142045 13.8091856,12.3839962 14.0696023,12.2088068 C14.3300189,12.0336174 14.5407197,11.8844697 14.7017045,11.7613636 C14.8626894,11.6382576 15.0804924,11.4607008 15.3551136,11.2286932 C15.6297348,10.9966856 15.7954545,10.8570076 15.8522727,10.8096591 C17.8219697,9.24715909 19.7206439,7.74621212 21.5482955,6.30681818 C22.0596591,5.89962121 22.5355114,5.35274621 22.9758523,4.66619318 C23.4161932,3.97964015 23.6363636,3.35700758 23.6363636,2.79829545 Z M25.4545455,2.27272727 L25.4545455,17.7272727 C25.4545455,18.3522727 25.2320076,18.8873106 24.7869318,19.3323864 C24.3418561,19.7774621 23.8068182,20 23.1818182,20 L2.27272727,20 C1.64772727,20 1.11268939,19.7774621 0.667613636,19.3323864 C0.222537879,18.8873106 0,18.3522727 0,17.7272727 L0,2.27272727 C0,1.64772727 0.222537879,1.11268939 0.667613636,0.667613636 C1.11268939,0.222537879 1.64772727,0 2.27272727,0 L23.1818182,0 C23.8068182,0 24.3418561,0.222537879 24.7869318,0.667613636 C25.2320076,1.11268939 25.4545455,1.64772727 25.4545455,2.27272727 Z" id="Shape"></path>
            </g>
        </g>
    </g>
</svg>