<?xml version="1.0" encoding="UTF-8"?>
<svg width="24px" height="23px" viewBox="0 0 24 23" version="1.1" xmlns="http://www.w3.org/2000/svg" xmlns:xlink="http://www.w3.org/1999/xlink">
    <!-- Generator: Sketch 46.2 (44496) - http://www.bohemiancoding.com/sketch -->
    <title>icn_social_linkedin</title>
    <desc>Created with Sketch.</desc>
    <defs></defs>
    <g id="Page-1" stroke="none" stroke-width="1" fill="none" fill-rule="evenodd" opacity="0.6">
        <g id="Home" transform="translate(-905.000000, -582.000000)" fill-rule="nonzero" fill="#FFFFFF">
            <g id="icn_social_linkedin" transform="translate(905.000000, 582.000000)">
                <path d="M5.453125,7.453125 L5.453125,22.9375 L0.296875,22.9375 L0.296875,7.453125 L5.453125,7.453125 Z M5.78125,2.671875 C5.79166667,3.43229167 5.52864583,4.06770833 4.9921875,4.578125 C4.45572917,5.08854167 3.75,5.34375 2.875,5.34375 L2.84375,5.34375 C1.98958333,5.34375 1.30208333,5.08854167 0.78125,4.578125 C0.260416667,4.06770833 0,3.43229167 0,2.671875 C0,1.90104167 0.268229167,1.26302083 0.8046875,0.7578125 C1.34114583,0.252604167 2.04166667,0 2.90625,0 C3.77083333,0 4.46354167,0.252604167 4.984375,0.7578125 C5.50520833,1.26302083 5.77083333,1.90104167 5.78125,2.671875 Z M24,14.0625 L24,22.9375 L18.859375,22.9375 L18.859375,14.65625 C18.859375,13.5625 18.6484375,12.7057292 18.2265625,12.0859375 C17.8046875,11.4661458 17.1458333,11.15625 16.25,11.15625 C15.59375,11.15625 15.0442708,11.3359375 14.6015625,11.6953125 C14.1588542,12.0546875 13.828125,12.5 13.609375,13.03125 C13.4947917,13.34375 13.4375,13.765625 13.4375,14.296875 L13.4375,22.9375 L8.296875,22.9375 C8.31770833,18.78125 8.328125,15.4114583 8.328125,12.828125 C8.328125,10.2447917 8.32291667,8.703125 8.3125,8.203125 L8.296875,7.453125 L13.4375,7.453125 L13.4375,9.703125 L13.40625,9.703125 C13.6145833,9.36979167 13.828125,9.078125 14.046875,8.828125 C14.265625,8.578125 14.5598958,8.30729167 14.9296875,8.015625 C15.2994792,7.72395833 15.7526042,7.49739583 16.2890625,7.3359375 C16.8255208,7.17447917 17.421875,7.09375 18.078125,7.09375 C19.859375,7.09375 21.2916667,7.68489583 22.375,8.8671875 C23.4583333,10.0494792 24,11.78125 24,14.0625 Z" id="Shape"></path>
            </g>
        </g>
    </g>
</svg>