<?xml version="1.0" encoding="UTF-8"?>
<svg width="22px" height="21px" viewBox="0 0 22 21" version="1.1" xmlns="http://www.w3.org/2000/svg" xmlns:xlink="http://www.w3.org/1999/xlink">
    <!-- Generator: Sketch 46.2 (44496) - http://www.bohemiancoding.com/sketch -->
    <title>icn_social_goodreads</title>
    <desc>Created with Sketch.</desc>
    <defs></defs>
    <g id="Page-1" stroke="none" stroke-width="1" fill="none" fill-rule="evenodd" opacity="0.6">
        <g id="Home" transform="translate(-1031.000000, -585.000000)" fill-rule="nonzero" fill="#FFFFFF">
            <g id="icn_social_goodreads" transform="translate(1031.000000, 585.000000)">
                <path d="M21.6566627,4.62184874 C22.0088035,5.12364946 22.0880352,5.69147659 21.8943577,6.32533013 L18.2629052,18.2893157 C18.0956383,18.8527411 17.7589036,19.3259304 17.2527011,19.7088836 C16.7464986,20.0918367 16.2072829,20.2833133 15.635054,20.2833133 L3.44657863,20.2833133 C2.76870748,20.2833133 2.11504602,20.0478191 1.48559424,19.5768307 C0.856142457,19.1058423 0.418167267,18.5270108 0.171668667,17.8403361 C-0.0396158463,17.2505002 -0.0484193677,16.6914766 0.145258103,16.1632653 C0.145258103,16.1280512 0.158463385,16.0092037 0.18487395,15.8067227 C0.211284514,15.6042417 0.228891557,15.4413766 0.237695078,15.3181273 C0.246498599,15.2476991 0.233293317,15.1530612 0.198079232,15.0342137 C0.162865146,14.9153661 0.149659864,14.8295318 0.158463385,14.7767107 C0.176070428,14.6798719 0.211284514,14.587435 0.264105642,14.4993998 C0.316926771,14.4113645 0.389555822,14.3079232 0.481992797,14.1890756 C0.574429772,14.0702281 0.647058824,13.9667867 0.699879952,13.8787515 C0.902360944,13.5442177 1.10044018,13.1414566 1.29411765,12.6704682 C1.48779512,12.1994798 1.61984794,11.7967187 1.69027611,11.4621849 C1.71668667,11.3741497 1.71888756,11.2420968 1.69687875,11.0660264 C1.67486995,10.889956 1.67266907,10.7667067 1.69027611,10.6962785 C1.71668667,10.5994398 1.79151661,10.4761905 1.91476591,10.3265306 C2.03801521,10.1768707 2.11284514,10.0756303 2.1392557,10.0228091 C2.32412965,9.70588235 2.5090036,9.30092037 2.69387755,8.80792317 C2.8787515,8.31492597 2.98879552,7.91876751 3.0240096,7.61944778 C3.03281313,7.54021609 3.02180872,7.39935974 2.9909964,7.19687875 C2.96018407,6.99439776 2.96238495,6.87114846 2.99759904,6.82713085 C3.03281313,6.71268507 3.12965186,6.57843137 3.28811525,6.42436975 C3.44657863,6.27030812 3.54341737,6.17126851 3.57863145,6.1272509 C3.74589836,5.89835934 3.93297319,5.52641056 4.13985594,5.01140456 C4.3467387,4.49639856 4.46778711,4.07162865 4.5030012,3.73709484 C4.51180472,3.66666667 4.49859944,3.55442177 4.46338535,3.40036014 C4.42817127,3.24629852 4.41936775,3.12965186 4.43697479,3.05042017 C4.45458183,2.979992 4.49419768,2.9007603 4.55582233,2.81272509 C4.61744698,2.72468988 4.69667867,2.62344938 4.79351741,2.5090036 C4.89035614,2.39455782 4.96518607,2.30212085 5.0180072,2.23169268 C5.08843537,2.12605042 5.16106443,1.99179672 5.23589436,1.82893157 C5.31072429,1.66606643 5.3767507,1.5120048 5.43397359,1.3667467 C5.49119648,1.2214886 5.56162465,1.06302521 5.6452581,0.891356543 C5.72889156,0.719687875 5.81472589,0.578831533 5.9027611,0.468787515 C5.99079632,0.358743497 6.10744298,0.255302121 6.25270108,0.158463385 C6.39795918,0.0616246499 6.55642257,0.0110044018 6.72809124,0.00660264106 C6.8997599,0.00220088035 7.10884354,0.0264105642 7.35534214,0.0792316927 L7.34213685,0.118847539 C7.67667067,0.0396158463 7.90116046,0 8.01560624,0 L18.0648259,0 C18.7162865,0 19.2180872,0.246498599 19.5702281,0.739495798 C19.9223689,1.232493 20.0016006,1.80472189 19.8079232,2.45618247 L16.1896759,14.4201681 C15.8727491,15.4677871 15.5580232,16.1434574 15.2454982,16.4471789 C14.9329732,16.7509004 14.3673469,16.9027611 13.5486194,16.9027611 L2.07322929,16.9027611 C1.83553421,16.9027611 1.66826731,16.9687875 1.57142857,17.1008403 C1.47458984,17.2416967 1.47018808,17.4309724 1.55822329,17.6686675 C1.7695078,18.284914 2.40336134,18.5930372 3.45978391,18.5930372 L15.6482593,18.5930372 C15.9035614,18.5930372 16.15006,18.5248099 16.3877551,18.3883553 C16.6254502,18.2519008 16.7795118,18.0692277 16.84994,17.8403361 L20.8115246,4.80672269 C20.8731493,4.61304522 20.8951581,4.36214486 20.877551,4.05402161 C21.2120848,4.18607443 21.4717887,4.37535014 21.6566627,4.62184874 Z M7.6062425,4.6482593 C7.57102841,4.76270508 7.57983193,4.8617447 7.63265306,4.94537815 C7.68547419,5.0290116 7.7735094,5.07082833 7.8967587,5.07082833 L15.9255702,5.07082833 C16.040016,5.07082833 16.1522609,5.0290116 16.2623049,4.94537815 C16.3723489,4.8617447 16.444978,4.76270508 16.4801921,4.6482593 L16.757503,3.80312125 C16.7927171,3.68867547 16.7839136,3.58963585 16.7310924,3.5060024 C16.6782713,3.42236895 16.5902361,3.38055222 16.4669868,3.38055222 L8.43817527,3.38055222 C8.32372949,3.38055222 8.21148459,3.42236895 8.10144058,3.5060024 C7.99139656,3.58963585 7.91876751,3.68867547 7.88355342,3.80312125 L7.6062425,4.6482593 Z M6.51020408,8.02881152 C6.47499,8.1432573 6.48379352,8.24229692 6.53661465,8.32593037 C6.58943577,8.40956383 6.67747099,8.45138055 6.80072029,8.45138055 L14.8295318,8.45138055 C14.9439776,8.45138055 15.0562225,8.40956383 15.1662665,8.32593037 C15.2763105,8.24229692 15.3489396,8.1432573 15.3841537,8.02881152 L15.6614646,7.18367347 C15.6966787,7.06922769 15.6878752,6.97018808 15.635054,6.88655462 C15.5822329,6.80292117 15.4941977,6.76110444 15.3709484,6.76110444 L7.34213685,6.76110444 C7.22769108,6.76110444 7.11544618,6.80292117 7.00540216,6.88655462 C6.89535814,6.97018808 6.82272909,7.06922769 6.78751501,7.18367347 L6.51020408,8.02881152 Z" id="Shape"></path>
            </g>
        </g>
    </g>
</svg>