<?xml version="1.0" encoding="utf-8"?>
<!-- Generator: Adobe Illustrator 21.1.0, SVG Export Plug-In . SVG Version: 6.00 Build 0)  -->
<svg version="1.1" id="icn_x5F_socials" xmlns="http://www.w3.org/2000/svg" xmlns:xlink="http://www.w3.org/1999/xlink" x="0px"
	 y="0px" viewBox="0 0 253.5 23" style="enable-background:new 0 0 253.5 23;" xml:space="preserve">
<style type="text/css">
	.st0{fill:#FFFFFF;}
	.st1{enable-background:new    ;}
</style>
<path id="icn_social_linkedin" class="st0" d="M5.5,7.5v15.5H0.3V7.5H5.5z M5.8,2.7c0,0.8-0.3,1.4-0.8,1.9
	S3.8,5.3,2.9,5.3h0C2,5.3,1.3,5.1,0.8,4.6S0,3.4,0,2.7c0-0.8,0.3-1.4,0.8-1.9S2,0,2.9,0S4.5,0.3,5,0.8S5.8,1.9,5.8,2.7z M24,14.1
	v8.9h-5.1v-8.3c0-1.1-0.2-2-0.6-2.6s-1.1-0.9-2-0.9c-0.7,0-1.2,0.2-1.6,0.5s-0.8,0.8-1,1.3c-0.1,0.3-0.2,0.7-0.2,1.3v8.6H8.3
	c0-4.2,0-7.5,0-10.1s0-4.1,0-4.6l0-0.8h5.1v2.2h0c0.2-0.3,0.4-0.6,0.6-0.9s0.5-0.5,0.9-0.8c0.4-0.3,0.8-0.5,1.4-0.7
	c0.5-0.2,1.1-0.2,1.8-0.2c1.8,0,3.2,0.6,4.3,1.8S24,11.8,24,14.1z"/>
<path id="icn_social_twitter" class="st0" d="M68,5.8c-0.7,1-1.5,1.8-2.5,2.5c0,0.1,0,0.4,0,0.6c0,1.3-0.2,2.6-0.6,4
	s-1,2.6-1.8,3.8c-0.8,1.2-1.7,2.3-2.8,3.2c-1.1,0.9-2.4,1.7-3.9,2.2c-1.5,0.6-3.2,0.8-4.9,0.8c-2.8,0-5.3-0.7-7.6-2.2
	c0.4,0,0.8,0.1,1.2,0.1c2.3,0,4.3-0.7,6.1-2.1c-1.1,0-2-0.3-2.9-1s-1.4-1.4-1.7-2.4c0.3,0.1,0.6,0.1,0.9,0.1c0.4,0,0.9-0.1,1.3-0.2
	c-1.1-0.2-2.1-0.8-2.8-1.7c-0.7-0.9-1.1-1.9-1.1-3.1v-0.1c0.7,0.4,1.4,0.6,2.2,0.6c-0.7-0.4-1.2-1-1.6-1.8S45,7.7,45,6.9
	c0-0.9,0.2-1.7,0.7-2.5c1.2,1.5,2.7,2.7,4.5,3.6c1.8,0.9,3.6,1.4,5.7,1.5c-0.1-0.4-0.1-0.8-0.1-1.1c0-1.4,0.5-2.5,1.4-3.5
	s2.1-1.4,3.5-1.4c1.4,0,2.6,0.5,3.6,1.6c1.1-0.2,2.1-0.6,3.1-1.2C67,5,66.2,5.9,65.2,6.6C66.1,6.5,67.1,6.2,68,5.8z"/>
<path id="icn_social_dribble" class="st0" d="M101.3,20.9c-0.4-2.1-1-4.3-1.8-6.5h0l0,0c-0.1,0.1-0.3,0.1-0.6,0.2
	c-0.2,0.1-0.7,0.3-1.3,0.6c-0.6,0.3-1.2,0.7-1.8,1.1c-0.5,0.4-1.1,0.9-1.7,1.5s-1,1.3-1.3,1.9l-0.2-0.1c1.6,1.3,3.4,2,5.4,2
	C99.1,21.5,100.3,21.3,101.3,20.9z M98.9,13c-0.2-0.4-0.4-0.9-0.7-1.4c-2.7,0.8-5.6,1.2-8.8,1.2c0,0.1,0,0.2,0,0.3
	c0,1.1,0.2,2.1,0.6,3.1s0.9,1.9,1.6,2.6c0.4-0.8,1-1.5,1.6-2.2s1.3-1.2,1.9-1.6s1.2-0.8,1.7-1.1s1-0.5,1.3-0.6l0.5-0.2
	c0,0,0.1,0,0.2,0S98.9,13,98.9,13z M97.5,10.2c-1-1.8-2.1-3.5-3.2-4.9c-1.2,0.6-2.2,1.4-3,2.4c-0.8,1.1-1.4,2.2-1.7,3.5
	C92.3,11.2,94.9,10.9,97.5,10.2z M106.4,14.4c-1.8-0.5-3.6-0.6-5.3-0.4c0.8,2.1,1.3,4.1,1.7,6.1c1-0.7,1.8-1.5,2.4-2.5
	C105.8,16.6,106.2,15.5,106.4,14.4z M96,4.7C96,4.7,96,4.7,96,4.7C96,4.7,96,4.7,96,4.7z M103.6,6.6c-1.6-1.4-3.5-2.1-5.6-2.1
	c-0.7,0-1.3,0.1-2,0.2c1.1,1.5,2.2,3.1,3.2,5c0.6-0.2,1.2-0.5,1.7-0.8c0.5-0.3,0.9-0.6,1.3-0.8c0.3-0.2,0.6-0.5,0.9-0.7
	c0.3-0.3,0.4-0.4,0.5-0.5L103.6,6.6z M106.5,12.9c0-2-0.7-3.8-1.9-5.3l0,0c-0.1,0.1-0.2,0.2-0.2,0.3c-0.1,0.1-0.3,0.3-0.6,0.6
	c-0.3,0.3-0.6,0.5-0.9,0.8c-0.3,0.2-0.8,0.5-1.3,0.8c-0.5,0.3-1.1,0.6-1.7,0.8c0.2,0.5,0.4,0.9,0.6,1.2c0,0,0,0.1,0.1,0.2
	s0.1,0.2,0.1,0.2c0.3,0,0.6-0.1,1-0.1c0.3,0,0.7,0,1,0c0.3,0,0.6,0,0.9,0c0.3,0,0.6,0,0.8,0.1s0.5,0,0.7,0.1c0.2,0,0.4,0.1,0.6,0.1
	c0.2,0,0.3,0.1,0.5,0.1s0.2,0,0.3,0.1L106.5,12.9z M108,13c0,1.8-0.4,3.5-1.3,5s-2.1,2.7-3.6,3.6c-1.5,0.9-3.2,1.3-5,1.3
	s-3.5-0.4-5-1.3c-1.5-0.9-2.7-2.1-3.6-3.6S88,14.8,88,13s0.4-3.5,1.3-5s2.1-2.7,3.6-3.6S96.2,3,98,3s3.5,0.4,5,1.3s2.7,2.1,3.6,3.6
	S108,11.2,108,13z"/>
<path id="icn_social_goodreads" class="st0" d="M149.7,7.3c0.4,0.5,0.4,1.1,0.2,1.7l-3.6,12c-0.2,0.6-0.5,1-1,1.4
	s-1,0.6-1.6,0.6h-12.2c-0.7,0-1.3-0.2-2-0.7c-0.6-0.5-1.1-1-1.3-1.7c-0.2-0.6-0.2-1.1,0-1.7c0,0,0-0.2,0-0.4c0-0.2,0-0.4,0.1-0.5
	c0-0.1,0-0.2,0-0.3c0-0.1,0-0.2,0-0.3c0-0.1,0.1-0.2,0.1-0.3c0.1-0.1,0.1-0.2,0.2-0.3s0.2-0.2,0.2-0.3c0.2-0.3,0.4-0.7,0.6-1.2
	s0.3-0.9,0.4-1.2c0-0.1,0-0.2,0-0.4c0-0.2,0-0.3,0-0.4c0-0.1,0.1-0.2,0.2-0.4s0.2-0.3,0.2-0.3c0.2-0.3,0.4-0.7,0.6-1.2
	s0.3-0.9,0.3-1.2c0-0.1,0-0.2,0-0.4c0-0.2,0-0.3,0-0.4c0-0.1,0.1-0.2,0.3-0.4s0.3-0.3,0.3-0.3c0.2-0.2,0.4-0.6,0.6-1.1
	c0.2-0.5,0.3-0.9,0.4-1.3c0-0.1,0-0.2,0-0.3c0-0.2,0-0.3,0-0.3c0-0.1,0.1-0.1,0.1-0.2c0.1-0.1,0.1-0.2,0.2-0.3S133,5,133,4.9
	c0.1-0.1,0.1-0.2,0.2-0.4c0.1-0.2,0.1-0.3,0.2-0.5c0.1-0.1,0.1-0.3,0.2-0.5c0.1-0.2,0.2-0.3,0.3-0.4c0.1-0.1,0.2-0.2,0.3-0.3
	s0.3-0.1,0.5-0.2c0.2,0,0.4,0,0.6,0.1l0,0c0.3-0.1,0.6-0.1,0.7-0.1h10c0.7,0,1.2,0.2,1.5,0.7c0.4,0.5,0.4,1.1,0.2,1.7l-3.6,12
	c-0.3,1-0.6,1.7-0.9,2c-0.3,0.3-0.9,0.5-1.7,0.5h-11.5c-0.2,0-0.4,0.1-0.5,0.2c-0.1,0.1-0.1,0.3,0,0.6c0.2,0.6,0.8,0.9,1.9,0.9h12.2
	c0.3,0,0.5-0.1,0.7-0.2c0.2-0.1,0.4-0.3,0.5-0.5l4-13c0.1-0.2,0.1-0.4,0.1-0.8C149.2,6.9,149.5,7.1,149.7,7.3z M135.6,7.4
	c0,0.1,0,0.2,0,0.3c0.1,0.1,0.1,0.1,0.3,0.1h8c0.1,0,0.2,0,0.3-0.1c0.1-0.1,0.2-0.2,0.2-0.3l0.3-0.8c0-0.1,0-0.2,0-0.3
	c-0.1-0.1-0.1-0.1-0.3-0.1h-8c-0.1,0-0.2,0-0.3,0.1s-0.2,0.2-0.2,0.3L135.6,7.4z M134.5,10.7c0,0.1,0,0.2,0,0.3
	c0.1,0.1,0.1,0.1,0.3,0.1h8c0.1,0,0.2,0,0.3-0.1c0.1-0.1,0.2-0.2,0.2-0.3l0.3-0.8c0-0.1,0-0.2,0-0.3s-0.1-0.1-0.3-0.1h-8
	c-0.1,0-0.2,0-0.3,0.1s-0.2,0.2-0.2,0.3L134.5,10.7z"/>
<g id="icn_social_CV" class="st1">
	<path class="st0" d="M184,7.8c-0.4-0.5-1-0.9-1.6-1.2c-0.6-0.3-1.3-0.4-2.2-0.4c-0.8,0-1.6,0.2-2.3,0.5c-0.7,0.3-1.3,0.8-1.8,1.3
		c-0.5,0.6-0.9,1.2-1.2,2s-0.4,1.6-0.4,2.5c0,0.9,0.1,1.8,0.4,2.6s0.7,1.4,1.2,2c0.5,0.6,1.1,1,1.8,1.3c0.7,0.3,1.4,0.5,2.2,0.5
		c0.9,0,1.7-0.2,2.4-0.6s1.3-0.9,1.7-1.6l3.6,2.7c-0.8,1.2-1.9,2-3.2,2.6c-1.3,0.6-2.6,0.8-4,0.8c-1.6,0-3-0.2-4.3-0.7
		c-1.3-0.5-2.4-1.2-3.4-2.1c-1-0.9-1.7-2-2.2-3.3s-0.8-2.7-0.8-4.3c0-1.6,0.3-3,0.8-4.3S172,5.9,173,5c1-0.9,2.1-1.6,3.4-2.1
		s2.7-0.7,4.3-0.7c0.6,0,1.1,0.1,1.8,0.2c0.6,0.1,1.2,0.3,1.8,0.5c0.6,0.2,1.2,0.5,1.7,0.9c0.5,0.4,1,0.8,1.5,1.4L184,7.8z"/>
	<path class="st0" d="M188.2,2.7h5l4.9,13h0.1l5-13h4.7l-8.2,19.8h-3.5L188.2,2.7z"/>
</g>
<path id="icn_social_email" class="st0" d="M251.6,20.7V9.8c-0.3,0.3-0.6,0.7-1,0.9c-2.5,2-4.6,3.6-6.1,4.8
	c-0.5,0.4-0.9,0.7-1.2,1c-0.3,0.2-0.7,0.5-1.2,0.7s-1,0.3-1.5,0.3h0c-0.5,0-0.9-0.1-1.5-0.3s-0.9-0.5-1.2-0.7
	c-0.3-0.2-0.7-0.5-1.2-1c-1.5-1.2-3.5-2.9-6.1-4.8c-0.4-0.3-0.7-0.6-1-0.9v10.9c0,0.1,0,0.2,0.1,0.3s0.2,0.1,0.3,0.1h20.9
	c0.1,0,0.2,0,0.3-0.1S251.6,20.9,251.6,20.7z M251.6,5.8V5.5l0-0.2l0-0.2L251.5,5l-0.1-0.1l-0.2,0h-20.9c-0.1,0-0.2,0-0.3,0.1
	s-0.1,0.2-0.1,0.3c0,1.6,0.7,2.9,2.1,4c1.8,1.4,3.7,2.9,5.7,4.5c0.1,0,0.2,0.2,0.5,0.4c0.3,0.2,0.5,0.4,0.7,0.5s0.4,0.3,0.6,0.4
	c0.3,0.2,0.5,0.3,0.7,0.4c0.2,0.1,0.4,0.1,0.6,0.1h0c0.2,0,0.4,0,0.6-0.1c0.2-0.1,0.5-0.2,0.7-0.4c0.3-0.2,0.5-0.3,0.6-0.4
	s0.4-0.3,0.7-0.5c0.3-0.2,0.4-0.4,0.5-0.4c2-1.6,3.9-3.1,5.7-4.5c0.5-0.4,1-1,1.4-1.6C251.4,7,251.6,6.4,251.6,5.8z M253.5,5.3v15.5
	c0,0.6-0.2,1.2-0.7,1.6c-0.4,0.4-1,0.7-1.6,0.7h-20.9c-0.6,0-1.2-0.2-1.6-0.7c-0.4-0.4-0.7-1-0.7-1.6V5.3c0-0.6,0.2-1.2,0.7-1.6
	c0.4-0.4,1-0.7,1.6-0.7h20.9c0.6,0,1.2,0.2,1.6,0.7C253.2,4.1,253.5,4.6,253.5,5.3z"/>
</svg>
