<?xml version="1.0" encoding="UTF-8"?>
<svg width="24px" height="20px" viewBox="0 0 24 20" version="1.1" xmlns="http://www.w3.org/2000/svg" xmlns:xlink="http://www.w3.org/1999/xlink">
    <!-- Generator: Sketch 46.2 (44496) - http://www.bohemiancoding.com/sketch -->
    <title>icn_social_twitter</title>
    <desc>Created with Sketch.</desc>
    <defs></defs>
    <g id="Page-1" stroke="none" stroke-width="1" fill="none" fill-rule="evenodd" opacity="0.6">
        <g id="Home" transform="translate(-948.000000, -586.000000)" fill-rule="nonzero" fill="#FFFFFF">
            <g id="icn_social_twitter" transform="translate(948.000000, 586.000000)">
                <path d="M24,2.31472081 C23.319797,3.30964467 22.4974619,4.15736041 21.5329949,4.85786802 C21.5431472,5 21.5482234,5.21319797 21.5482234,5.49746193 C21.5482234,6.81725888 21.3553299,8.13451777 20.9695431,9.44923858 C20.5837563,10.7639594 19.9974619,12.0253807 19.2106599,13.2335025 C18.4238579,14.4416244 17.4873096,15.5101523 16.4010152,16.4390863 C15.3147208,17.3680203 14.0050761,18.1091371 12.4720812,18.6624365 C10.9390863,19.215736 9.29949239,19.4923858 7.55329949,19.4923858 C4.80203046,19.4923858 2.28426396,18.7563452 0,17.284264 C0.355329949,17.3248731 0.751269036,17.3451777 1.18781726,17.3451777 C3.47208122,17.3451777 5.50761421,16.6446701 7.29441624,15.2436548 C6.2284264,15.2233503 5.27411168,14.8959391 4.43147208,14.2614213 C3.58883249,13.6269036 3.01015228,12.8172589 2.69543147,11.8324873 C3.03045685,11.8832487 3.34010152,11.9086294 3.62436548,11.9086294 C4.06091371,11.9086294 4.49238579,11.8527919 4.91878173,11.7411168 C3.78172589,11.5076142 2.84010152,10.9416244 2.09390863,10.0431472 C1.34771574,9.14467005 0.974619289,8.10152284 0.974619289,6.91370558 L0.974619289,6.85279188 C1.66497462,7.23857868 2.40609137,7.44670051 3.19796954,7.47715736 C2.52791878,7.03045685 1.99492386,6.44670051 1.59898477,5.72588832 C1.20304569,5.00507614 1.00507614,4.22335025 1.00507614,3.38071066 C1.00507614,2.48730964 1.2284264,1.65989848 1.6751269,0.898477157 C2.9035533,2.41116751 4.39847716,3.62182741 6.15989848,4.53045685 C7.9213198,5.43908629 9.8071066,5.94416244 11.8172589,6.04568528 C11.7360406,5.65989848 11.6954315,5.28426396 11.6954315,4.91878173 C11.6954315,3.55837563 12.1751269,2.39847716 13.1345178,1.43908629 C14.0939086,0.479695431 15.2538071,0 16.6142132,0 C18.035533,0 19.2335025,0.517766497 20.2081218,1.55329949 C21.3147208,1.34010152 22.3553299,0.944162437 23.3299492,0.365482234 C22.9543147,1.53299492 22.2335025,2.43654822 21.1675127,3.07614213 C22.1116751,2.97461929 23.0558376,2.72081218 24,2.31472081 Z" id="Shape"></path>
            </g>
        </g>
    </g>
</svg>