<?xml version="1.0" encoding="UTF-8"?>
<svg width="20px" height="20px" viewBox="0 0 20 20" version="1.1" xmlns="http://www.w3.org/2000/svg" xmlns:xlink="http://www.w3.org/1999/xlink">
    <!-- Generator: Sketch 46.2 (44496) - http://www.bohemiancoding.com/sketch -->
    <title>icn_social_dribble</title>
    <desc>Created with Sketch.</desc>
    <defs></defs>
    <g id="Page-1" stroke="none" stroke-width="1" fill="none" fill-rule="evenodd" opacity="0.6">
        <g id="Home" transform="translate(-991.000000, -585.000000)" fill-rule="nonzero" fill="#FFFFFF">
            <g id="icn_social_dribble" transform="translate(991.000000, 585.000000)">
                <path d="M13.3333333,17.8645833 C12.96875,15.7725694 12.3611111,13.6111111 11.5104167,11.3802083 L11.484375,11.3802083 L11.4583333,11.3932292 C11.3194444,11.4453125 11.1328125,11.5169271 10.8984375,11.6080729 C10.6640625,11.6992188 10.2256944,11.9118924 9.58333333,12.2460938 C8.94097222,12.5802951 8.34635417,12.9361979 7.79947917,13.3138021 C7.25260417,13.6914063 6.68402778,14.1883681 6.09375,14.8046875 C5.50347222,15.4210069 5.05642361,16.0633681 4.75260417,16.7317708 L4.55729167,16.5885417 C6.15451389,17.890625 7.96875,18.5416667 10,18.5416667 C11.1458333,18.5416667 12.2569444,18.3159722 13.3333333,17.8645833 Z M10.9244792,9.9609375 C10.7421875,9.53559028 10.5121528,9.05381944 10.234375,8.515625 C7.53472222,9.32291667 4.61371528,9.7265625 1.47135417,9.7265625 C1.46267361,9.78732639 1.45833333,9.87847222 1.45833333,10 C1.45833333,11.0763889 1.64930556,12.1028646 2.03125,13.0794271 C2.41319444,14.0559896 2.95138889,14.9305556 3.64583333,15.703125 C4.07986111,14.9305556 4.61588542,14.2078993 5.25390625,13.5351562 C5.89192708,12.8624132 6.51041667,12.3220486 7.109375,11.9140625 C7.70833333,11.5060764 8.27473958,11.1545139 8.80859375,10.859375 C9.34244792,10.5642361 9.77430556,10.3559028 10.1041667,10.234375 L10.5859375,10.0651042 C10.6206597,10.0564236 10.6770833,10.0412326 10.7552083,10.0195312 C10.8333333,9.99782986 10.8897569,9.97829861 10.9244792,9.9609375 Z M9.53125,7.20052083 C8.48958333,5.3515625 7.43055556,3.7109375 6.35416667,2.27864583 C5.15625,2.84288194 4.140625,3.65017361 3.30729167,4.70052083 C2.47395833,5.75086806 1.91840278,6.93142361 1.640625,8.2421875 C4.26215278,8.2421875 6.89236111,7.89496528 9.53125,7.20052083 Z M18.4375,11.3541667 C16.6145833,10.8333333 14.8394097,10.7074653 13.1119792,10.9765625 C13.8671875,13.0512153 14.4227431,15.0868056 14.7786458,17.0833333 C15.7421875,16.4322917 16.5451389,15.609809 17.1875,14.6158854 C17.8298611,13.6219618 18.2465278,12.5347222 18.4375,11.3541667 Z M8.0296875,1.70572917 C7.99635417,1.70572917 7.96302083,1.7390625 7.9296875,1.80572917 C7.96302083,1.7390625 7.99635417,1.70572917 8.0296875,1.70572917 Z M15.6380208,3.59375 C14.0321181,2.17013889 12.1527778,1.45833333 10,1.45833333 C9.34027778,1.45833333 8.66753472,1.54079861 7.98177083,1.70572917 C9.11892361,3.18142361 10.1866319,4.83940972 11.1848958,6.6796875 C11.7838542,6.45399306 12.3480903,6.19140625 12.8776042,5.89192708 C13.4071181,5.59244792 13.8259549,5.32552083 14.1341146,5.09114583 C14.4422743,4.85677083 14.7265625,4.609375 14.9869792,4.34895833 C15.2473958,4.08854167 15.4101563,3.91276042 15.4752604,3.82161458 L15.6380208,3.59375 Z M18.5416667,9.90885417 C18.515625,7.89496528 17.8689236,6.11545139 16.6015625,4.5703125 L16.5885417,4.58333333 C16.5104167,4.6875 16.4279514,4.79383681 16.3411458,4.90234375 C16.2543403,5.01085069 16.0655382,5.20399306 15.7747396,5.48177083 C15.483941,5.75954861 15.1757813,6.02213542 14.8502604,6.26953125 C14.5247396,6.51692708 14.0907118,6.79904514 13.5481771,7.11588542 C13.0056424,7.43272569 12.4348958,7.71267361 11.8359375,7.95572917 C12.0529514,8.41579861 12.2439236,8.828125 12.4088542,9.19270833 C12.4262153,9.23611111 12.4544271,9.30989583 12.4934896,9.4140625 C12.5325521,9.51822917 12.5651042,9.59201389 12.5911458,9.63541667 C12.9036458,9.59201389 13.2269965,9.56163194 13.5611979,9.54427083 C13.8953993,9.52690972 14.2144097,9.51822917 14.5182292,9.51822917 C14.8220486,9.51822917 15.1215278,9.52473958 15.4166667,9.53776042 C15.7118056,9.55078125 15.9895833,9.56814236 16.25,9.58984375 C16.5104167,9.61154514 16.7556424,9.63541667 16.9856771,9.66145833 C17.2157118,9.6875 17.4240451,9.71571181 17.6106771,9.74609375 C17.797309,9.77647569 17.9557292,9.80251736 18.0859375,9.82421875 C18.2161458,9.84592014 18.3246528,9.86545139 18.4114583,9.8828125 L18.5416667,9.90885417 Z M20,10 C20,11.8142361 19.5529514,13.4874132 18.6588542,15.0195312 C17.7647569,16.5516493 16.5516493,17.7647569 15.0195312,18.6588542 C13.4874132,19.5529514 11.8142361,20 10,20 C8.18576389,20 6.51258681,19.5529514 4.98046875,18.6588542 C3.44835069,17.7647569 2.23524306,16.5516493 1.34114583,15.0195312 C0.447048611,13.4874132 0,11.8142361 0,10 C0,8.18576389 0.447048611,6.51258681 1.34114583,4.98046875 C2.23524306,3.44835069 3.44835069,2.23524306 4.98046875,1.34114583 C6.51258681,0.447048611 8.18576389,0 10,0 C11.8142361,0 13.4874132,0.447048611 15.0195312,1.34114583 C16.5516493,2.23524306 17.7647569,3.44835069 18.6588542,4.98046875 C19.5529514,6.51258681 20,8.18576389 20,10 Z" id="Shape"></path>
            </g>
        </g>
    </g>
</svg>