<?xml version="1.0" encoding="utf-8"?>
<!-- Generator: Adobe Illustrator 21.1.0, SVG Export Plug-In . SVG Version: 6.00 Build 0)  -->
<svg version="1.1" id="Layer_1" xmlns="http://www.w3.org/2000/svg" xmlns:xlink="http://www.w3.org/1999/xlink" x="0px" y="0px"
	 viewBox="0 0 702.2 964.4" style="enable-background:new 0 0 702.2 964.4;" xml:space="preserve">
<style type="text/css">
	.st0{fill:#FFFFFF;}
	.st1{fill:#231F20;}
</style>
<title>illu</title>
<g id="Layer_8">
	<path class="st0" d="M2.7,964.4c-0.2-57-1-83.5,2.4-110.5S4.7,744.2,36.2,695.8c32.4-58.2,62.6-56.8,71.1-59.8
		c-2.2-33.5,17.3-92,11.8-128.5s3.5-63.4,12.7-114.5s-2.1-117,20.8-209.5S222.7,51.4,259.2,39.3s99.5-7.9,131.1-4.2
		s72,33.1,83.7,48.5c11.7,15.3,44.8,71,44.8,71s6.8,14.4,12.8,27.5s20.9,49.2,25.5,90.6c4.9,44.7,14.8,95.3,21.5,133.1
		S615,593.6,615,593.6s13.6,4.9,41.7,26c33.1,24.9,38.2,127.9,40.1,219.5c1.9,91.6,3.1,125.4,3.1,125.4H2.7V964.4z"/>
	<path class="st1" d="M0.2,961.4c0-9.8-0.1-15.8-0.1-24c-0.2-39.5-0.3-61.3,2.6-83.8c0.7-5.7,1.2-14.2,1.6-24
		C6.1,793.4,9,733,34.1,694.4c28.6-51.4,56.4-57.3,68.3-59.9c0.9-0.2,1.7-0.4,2.4-0.5c-0.6-15.1,2.6-34.5,6.1-54.9
		c4.3-25.5,8.8-51.8,5.8-71.4c-4.4-28.8,0.3-52.1,6.7-84.5c1.8-9.1,3.9-19.5,5.9-30.9c3.5-19.4,4-40.7,4.5-65.4
		c0.9-38.7,2-86.8,16.3-144.2c26.8-108.2,84.6-138,108.2-145.9c42.1-13.9,117.5-6,132.2-4.3c32.5,3.8,73.8,34.2,85.4,49.4
		c11.6,15.2,43.6,69,44.9,71.2l0.1,0.2c0.1,0.2,6.8,14.6,12.8,27.6c6.2,13.6,21.1,49.8,25.7,91.3c4.1,37.3,11.8,79.5,17.9,113.3
		c1.2,6.8,2.4,13.3,3.5,19.5c6.3,35.4,33.1,171.4,36.1,186.4c4.1,1.8,17.6,8.2,41,25.8C692.1,642.9,697,745,699,838.6
		c1.9,90.5,3.1,122,3.1,122.3l0.1,2.6H0.2L0.2,961.4z M697.1,963.9c-0.3-9.5-1.4-48-3-124.8c-2.1-99.2-8.2-194.3-39.1-217.5
		c-27.3-20.5-40.9-25.7-41-25.7l-1.3-0.5l-0.3-1.4c-0.3-1.5-29.7-150.5-36.4-187.8c-1.1-6.2-2.3-12.7-3.5-19.5
		c-6.2-34-13.9-76.2-18-113.7c-4.5-40.8-19.1-76.4-25.2-89.8c-5.6-12.4-12.1-26-12.7-27.4c-1.6-2.7-33.4-56-44.5-70.7
		c-11.2-14.7-50.8-43.8-82-47.5c-42-4.9-98.2-6.5-130,4.1c-22.8,7.6-78.7,36.6-104.9,142.3c-14.1,56.9-15.1,102.7-16.1,143.2
		c-0.6,24.9-1.1,46.4-4.6,66.1c-2,11.4-4.1,21.8-5.9,31c-6.6,33-10.9,54.8-6.7,82.7c3.1,20.5-1.4,47.2-5.8,73
		c-3.6,21-6.9,40.9-5.9,55.8l0.1,1.9l-1.8,0.6c-1.6,0.5-3.2,0.9-4.8,1.2c-12.2,2.6-37.4,8-65,57.5l-0.1,0.2
		C14.2,734.7,11.3,794.3,9.5,830c-0.5,9.9-0.9,18.5-1.7,24.4c-2.9,22.1-2.7,43.8-2.5,83.1c0,7.6,0.1,17.7,0.1,26.6h691.7V963.9z"/>
</g>
<g id="Layer_6">
	<path class="st1" d="M241.5,310.3c-16.6-2.5-30.9-6.9-38-6.6s-23.4,2.5-24.4,1s8.5-2.8,14.2-4.4s15.5-4.8,25.5-3.4
		s24.6,5.5,40.9,7.1s15.9,10.9,16,11.6C276.4,318.8,258.2,312.8,241.5,310.3z"/>
	<path class="st1" d="M275.1,339.5c0,0-19.3-16.8-34.6-19c-11.2-1.6-19.8,1.6-27.5,7.9c-1.8,1.5-3.8,5.1-3,5.8
		c7.1,5.8,14.4,7.6,23.2,8c9.3,0.4,35.8-2.5,21-0.1s-25.4,3.1-35,1.2s-19.6-11.8-15.6-12.5s6.4-4.4,9.2-6s11.5-9,27.2-7.6
		c14,1.2,31.1,18.2,34.6,21.9l0.7,0.7"/>
	<path d="M260.5,320.6c-2.4-1.4-5-2.6-7.6-3.7c-5.2-2-10.8-3.3-16.4-2.9c-5.6,0.5-11.2,1.6-16.5,3.3c-2.7,0.8-5.3,1.8-7.9,3
		s-5,2.6-7.3,4.2c4.5-3.5,9.6-6.3,15-8c5.4-1.9,11-3.1,16.7-3.5c1.4-0.1,2.9-0.1,4.3,0c0.7,0,1.4,0.2,2.1,0.2
		c0.7,0.1,1.4,0.2,2.1,0.4l2.1,0.5l2.1,0.6c0.7,0.2,1.3,0.4,2,0.7c0.7,0.3,1.3,0.5,2,0.8c5.3,2.2,10.1,5.3,14.4,9.1
		C265.4,323.6,263,322,260.5,320.6z"/>
	<path class="st1" d="M234.6,337.4c6.5,3.3,15.2,3,20.2-0.3s3.9-7.4,3.9-7.4s-4.1-3.3-14.6-6.4s-12.8-0.4-12.8-0.4
		S228.1,334,234.6,337.4z M240.3,323.5c4.2,1.7,0,3.1,0,3.1C237.3,326.7,237.7,322.5,240.3,323.5L240.3,323.5z M238.2,335.1
		c-0.9-3.2,3.3-4.4,3.3-4.4h0.4c2.6,0.4,2.8,1.9,2.8,4.4S239.1,338.2,238.2,335.1L238.2,335.1z"/>
	<path class="st1" d="M409,291.2c-14.5,2.7-55.7,13.8-58.7,14.2s-3.7-4.2,1.3-10s35.3-9,56.8-13.8s42.2,5.3,42.2,5.3
		C452.8,290.6,423.5,288.6,409,291.2z"/>
	<path class="st1" d="M434.5,322.6c0,0,0.2,1.2-3.7,2.8s-18.2,6.6-33.3,10.9c-15.2,4.3-32.7-1.8-32.7-1.8s22.2,1.7,30.5,0
		s29.4-8.9,24.5-11c-5.4-2.4-12.8-8.3-28.2-8.7c-13.8-0.3-42.7,19.7-42.7,19.7c1.1-1.4,2.4-2.6,3.8-3.7c1.8-1.2,15-11.5,22-15.5
		s5.3-4.8,19.7-5c14.3-0.2,33.3,12.8,33.3,12.8C430.3,324.6,434.5,322.6,434.5,322.6z"/>
	<path class="st1" d="M376.5,321.7c0,0,1.9,12,15.2,11c13.4-1,13.8-13.3,13.8-13.3s-8.3-3.5-15.7-2.4
		C385.2,317.8,380.6,319.4,376.5,321.7z M398.5,323c-4.1,0-4.2-6.4,0.5-4.1S398.5,323,398.5,323L398.5,323z M383.5,328.7
		c-2.6-3.9,2-4.3,1.9-4.4c3,0.1,4.2,1.3,4.8,4S386.1,332.6,383.5,328.7L383.5,328.7z"/>
	<path class="st1" d="M427.1,316.8c-0.6-0.4-1-0.9-1.6-1.3c-0.5-0.4-1.1-0.8-1.6-1.2c-2.2-1.5-4.6-2.9-7-4c-1.2-0.5-2.4-1.1-3.7-1.5
		c-0.6-0.2-1.2-0.5-1.9-0.7c-0.6-0.2-1.3-0.4-1.9-0.6c-0.6-0.2-1.3-0.4-2-0.5l-2-0.5c-1.3-0.3-2.7-0.5-4-0.9
		c1.4,0.1,2.7,0.2,4.1,0.4l2,0.4c0.7,0.1,1.3,0.2,2,0.4c2.7,0.6,5.3,1.5,7.8,2.7s4.8,2.6,7,4.3c2.2,1.7,4.1,3.7,5.6,5.9
		C429.1,318.6,428.1,317.7,427.1,316.8z"/>
	<path class="st1" d="M391.2,305.2c-1.9,0.2-3.7,0.4-5.6,0.7c-3.7,0.5-7.4,1.2-11,2.2c-3.6,0.9-7.1,2.2-10.5,3.9
		c-1.7,0.8-3.3,1.8-4.7,2.9c-1.5,1.1-2.9,2.4-4.1,3.8c2.2-3.1,5.1-5.7,8.4-7.4c3.3-1.8,6.9-3.2,10.5-4.1c3.7-0.9,7.4-1.6,11.1-2
		c3.7-0.4,7.5-0.5,11.3-0.3C394.9,304.9,393.1,305,391.2,305.2z"/>
	<path class="st1" d="M345.5,460.2c-27.7,4.3-33.3,4-47.8,0.2s-45.2-6.3-45.2-6.3s13-2.8,22.8-1.2s34,8.2,42.5,8.8s17-4,29.8-6
		s43.3-5.2,43.3-5.2S373.2,455.9,345.5,460.2z"/>
	<path class="st1" d="M320.2,456.6c-2-0.1-4-0.3-6-0.7c-2-0.4-3.9-1.1-5.7-2c1.9,0.6,3.8,1,5.8,1.2c1.9,0.3,3.9,0.4,5.9,0.5
		c2,0,3.9-0.1,5.8-0.5c2-0.3,3.9-0.7,5.8-1.3C328.2,455.7,324.2,456.6,320.2,456.6z"/>
	<path class="st1" d="M335,471.7c-3.4,0.8-6.8,1.3-10.2,1.6c-3.4,0.3-6.9,0.3-10.3,0s-6.8-1-10.1-2.1c1.7,0.3,3.3,0.7,5.1,0.8
		c0.8,0.1,1.7,0.3,2.5,0.3l2.5,0.2c3.4,0.1,6.8,0.1,10.2-0.2c3.4-0.3,6.8-0.8,10.1-1.3c1.7-0.3,3.3-0.7,5-1s3.3-0.8,5-1.2
		C341.7,470,338.4,471,335,471.7z"/>
	<path class="st1" d="M361.8,411.5c-0.1,2-0.6,3.9-1.6,5.5c-0.6,0.8-1.3,1.5-2.2,2c-0.9,0.5-1.9,0.8-2.9,0.8s-1.9-0.1-2.9,0
		s-1.9,0.1-2.9,0.1c-3.8,0.1-7.6,0.7-11.2,1.6c-3.7,1-7.2,2.3-10.6,4s-7.1,3.1-10.8,4.1c-1.9,0.5-3.8,0.8-5.7,0.9
		c-1.9,0.1-3.9,0.1-5.8-0.2c-1.9-0.3-3.8-0.7-5.6-1.3c-1.8-0.6-3.6-1.4-5.4-2.1s-3.5-1.4-5.3-2.1c-1.8-0.6-3.7-1-5.6-1.3
		c3.8,0.2,7.5,1.6,11.1,2.9c1.8,0.7,3.6,1.4,5.4,2s3.7,1,5.6,1.2c3.8,0.4,7.6,0.1,11.2-0.8c3.7-1,7.2-2.3,10.6-4.1
		c3.5-1.7,7.1-3,10.8-4c3.7-1,7.6-1.5,11.5-1.5c1,0,1.9,0,2.9,0s1.9,0.1,2.8,0c0.9,0,1.8-0.3,2.6-0.7c0.8-0.4,1.5-1,2-1.8
		c1-1.6,1.7-3.4,1.8-5.3c0.2-1.9,0.1-3.8-0.2-5.7C361.7,407.6,361.9,409.6,361.8,411.5z"/>
	<path class="st1" d="M473.4,60.2c-10,6-34,15-36.8,15s-11.8-3-5.5-4.2c8.9-1.6,17.7-4,26.2-7c10-3.8,19.8-11,22.8-14.2
		s-1-2.8-1-2.8c-5.5,4.9-11.4,9.3-17.8,13.1c-11,6.8-43,9.5-47,8.2s-9.2-7.8-9.2-7.8s22.8,0.8,42.2-4s26.2-13,32.8-19.8
		s-3.8-22.2-27-27.8s-68.5,2.8-88,9.5c-19.5,6.8-25.2,20.8-21.7,24.2s17.5,9.8,15.2,9s-22.7-7.4-33.4-11.2s-25.5-10.8-34.5-12.5
		s-23.8-3.2-54.5,2.2s-49.2,26-53.5,35s-2.2,9.8,6.2,16.8s23.2,3.5,27.2,3.2s-3.8,7.2-10.8,8s-21.8-0.8-25-1.8s-10.5-1.8-9.8-19
		s19.8-31.8,52-44.2s71-6.8,77.2-4.8s12,5.2,16,2.2s9.2-2.8,16-2.5s5.8,1,25.5-7.8s60.2-23,108-9.8S492,42.6,492,42.6
		C491.4,48.2,483.4,54.2,473.4,60.2z"/>
	<path class="st1" d="M512.2,93.3c2,6.7,7.8,43.8,8.5,55.8s2.8,17.5,2.2,20.5s-5-11.2-7.5-17s-2.2-10-1.8-12s-6-37.5-6-37.5
		s-11.7-52.7-12.4-54.7s6.2-7.5,7.2-7s0,5.4,0,5.4C502,50.9,510.2,86.6,512.2,93.3z"/>
	<path class="st1" d="M495.7,397.6c-0.7,7.2-1.7,14.3-3,21.4c-2.7,14.1-6.6,28.2-12.9,41.3c-3.1,6.6-6.9,12.9-11.4,18.6
		c-2.3,2.9-4.7,5.5-7.1,8.2c-2.4,2.7-4.8,5.3-7.3,8c-4.9,5.3-10,10.5-15.2,15.4c-5.2,4.9-10.7,9.7-16.4,14.3
		c-11.4,9-23.9,16.5-37.3,22.3c-6.7,2.9-13.6,5.3-20.6,7.1c-7.1,1.7-14.3,2.8-21.6,3.2c-14.5,0.9-29.1-0.5-43.1-4.2
		c-7-1.9-13.8-4.6-20.1-8.1c-6.2-3.6-12.2-8-16.5-13.8c1.1,1.4,2.3,2.7,3.7,3.9c1.3,1.2,2.7,2.3,4.2,3.4c2.9,2.1,5.9,4,9.1,5.6
		c6.4,3.2,13.1,5.6,20.1,7.1c6.9,1.6,14,2.7,21.1,3.1c7.1,0.5,14.2,0.5,21.3-0.1c7-0.6,14-1.7,20.9-3.4c6.9-1.9,13.5-4.3,20-7.2
		c13-5.8,25.2-13.2,36.3-22c5.6-4.5,11-9.1,16.2-14c5.1-4.9,10.2-10,15.1-15.2c2.5-2.6,4.9-5.2,7.3-7.8c2.4-2.7,4.9-5.3,7.1-8
		c1.1-1.4,2.3-2.7,3.2-4.2s2-2.9,2.9-4.4s1.9-3,2.7-4.5l1.3-2.3l1.2-2.4c3.2-6.4,5.9-13,8.1-19.7c2.2-6.8,4.1-13.7,5.7-20.6
		c3.1-14,5.1-28.2,6-42.5C496.8,383.3,496.4,390.4,495.7,397.6z"/>
	<path class="st1" d="M221,170.4c-7.6,3.9-14.5,9.1-20.3,15.4c-5.8,6.3-10.8,13.2-14.9,20.7s-7.5,15.3-10.2,23.5
		c-2.5,8.2-4.3,16.5-5.3,25c-1.1,8.5-1.9,17-2.4,25.6s-0.8,17.2-0.8,25.7c-0.1,8.6,0.2,17.1,0.9,25.7c1.6,17.1,4.2,34.1,7.7,50.9
		l5.3,25.3c1.8,8.4,3.6,16.8,5.6,25.2c1,4.1,2.1,8.2,3.3,12.3s2.5,8.2,4,12.2c0.4,1,0.8,2,1.2,3l1.3,3c0.9,1.9,2,3.8,3.1,5.6
		c2.4,3.6,5,7,7.8,10.2c5.7,6.5,11.8,12.6,18,18.5c6.3,5.9,12.7,11.6,19.3,17.1c-6.7-5.4-13.2-11.1-19.5-16.9
		c-6.4-5.8-12.5-11.9-18.2-18.3c-2.9-3.2-5.6-6.6-8-10.2s-4.3-7.5-5.9-11.6c-1.6-4-3.1-8.1-4.4-12.2s-2.5-8.3-3.6-12.4
		c-2.2-8.3-4.2-16.7-6.1-25.1L176,396c-1-4.2-2-8.4-2.9-12.6c-3.7-16.9-6.4-34-8.1-51.2c-0.8-8.6-1.2-17.3-1.1-25.9s0.4-17.3,1-25.9
		s1.4-17.2,2.6-25.8c1.1-8.6,3-17.1,5.6-25.4c2.8-8.2,6.4-16.2,10.8-23.7c4.3-7.6,9.5-14.5,15.6-20.8c6-6.3,13.2-11.4,21.1-15.1
		c7.8-3.6,15.7-7.2,23.5-10.7C236.5,162.8,228.8,166.6,221,170.4z"/>
	<path class="st1" d="M266,568c1.1,2.4,2.2,4.9,3.3,7.4l3.1,7.4l3,7.5c0.9,2.5,1.9,5,2.8,7.6c1.8,5.1,3.5,10.2,5,15.4
		c-2.6-4.8-4.9-9.6-7.2-14.6c-1.1-2.4-2.2-4.9-3.3-7.4l-3.1-7.5l-3-7.5c-1-2.5-2-5-2.8-7.6c-1.8-5.1-3.5-10.2-5-15.4
		C261.4,558.2,263.8,563,266,568z"/>
	<path class="st1" d="M230.3,567.8c1.4-1.7,2.8-3.4,4.2-5.1s2.7-3.4,3.9-5.2c2.6-3.5,4.8-7.2,6.7-11.1c1.8-3.9,3.2-8,3-12.5
		c0.7,2.2,0.9,4.5,0.7,6.7c-0.2,2.3-0.7,4.5-1.5,6.7c-1.6,4.3-3.8,8.3-6.5,11.9c-2.6,3.6-5.6,7-8.8,10.2c-3.2,3.2-6.6,6-10.4,8.5
		C224.6,574.5,227.5,571.2,230.3,567.8z"/>
	<path class="st1" d="M192.7,571.7c4.8,17.6,8.4,35.4,10.7,53.5c0.5,4.5,0.9,9.1,1.1,13.7c0.3,4.6,0.3,9.2,0,13.8
		c-0.1,2.3-0.4,4.6-0.6,6.8l-0.3,3.4l-0.5,3.4c-0.3,2.3-0.6,4.5-1,6.8s-0.8,4.5-1.3,6.7s-1,4.5-1.7,6.7l-0.9,3.3
		c-0.3,1.1-0.8,2.2-1.1,3.3c-0.7,2.2-1.7,4.3-2.6,6.4c-0.4,1.1-1,2.1-1.5,3.1l-0.8,1.5c-0.3,0.5-0.6,1-0.9,1.5
		c-2.3,4-5.3,7.6-8.8,10.6c-0.8,0.8-1.8,1.4-2.7,2.1s-1.9,1.3-2.9,1.8s-2,1.1-3.1,1.5s-2.1,0.8-3.2,1.2c4.1-1.8,7.9-4.4,11.1-7.5
		c0.8-0.8,1.6-1.6,2.3-2.5l2.1-2.6l1.8-2.8c0.6-0.9,1.1-1.9,1.6-2.9c0.3-0.5,0.6-1,0.8-1.5l0.7-1.5c0.4-1.1,1-2,1.3-3.1
		c0.8-2.1,1.6-4.2,2.2-6.3c0.4-1.1,0.7-2.1,1-3.2l0.8-3.3c0.6-2.2,1-4.4,1.4-6.6c1.6-8.8,2.6-17.8,3.1-26.7
		c0.3-8.9-0.1-17.9-1.3-26.8c-1-8.9-2.5-17.8-4.2-26.7s-3.6-17.7-5.6-26.5c-4.1-17.6-8.7-35.1-13.6-52.6
		C182.6,536.9,188.1,554.2,192.7,571.7z"/>
	<path class="st1" d="M163.4,703.8c1.3-1,2.6-2.1,3.8-3.2c2.4-2.3,4.5-4.9,6.2-7.7c3.4-5.6,5.8-11.8,7-18.3s1.6-13.1,1.3-19.7
		c-0.3-6.6-1.1-13.2-2.4-19.7c-1.2-6.6-2.6-13.2-3.9-19.8l-3.9-19.8c-1.3-6.6-2.6-13.1-4-19.7s-2.8-13.1-4.4-19.7
		c2.5,6.2,4.4,12.6,6.3,19.2s3.5,13,5.2,19.5s3.2,13.1,4.6,19.7s2.8,13.2,4.1,19.8c1.3,6.7,2.1,13.5,2.2,20.3
		c0.1,3.4-0.1,6.9-0.4,10.3c-0.3,3.4-0.9,6.8-1.7,10.2c-1.5,6.7-4.4,13.1-8.5,18.7c-2,2.8-4.4,5.2-7.1,7.4c-2.6,2.2-5.6,3.9-8.8,5
		C160.7,705.7,162.1,704.8,163.4,703.8z"/>
	<path class="st1" d="M71.4,883.2c2.8-9.6,5.7-19.2,9-28.7c0.8-2.4,1.7-4.7,2.5-7.1s1.7-4.7,2.6-7l2.8-7l1.4-3.5l1.5-3.5l3-6.9
		c1-2.3,2.1-4.6,3.2-6.8s2.1-4.6,3.3-6.8l3.5-6.7c0.6-1.1,1.2-2.2,1.8-3.3l1.9-3.2l3.9-6.5c1.4-2.1,2.9-4.2,4.3-6.2s2.9-4.2,4.3-6.2
		l4.4-6.1c1.4-2,2.8-4.1,4.1-6.2l2.1-3.1l1.9-3.2l1.9-3.2c0.7-1.1,1.3-2.1,1.9-3.2c9.8-17.2,17.1-35.9,20.1-55.5
		c1.5-9.8,2.2-19.7,2-29.6c-0.1-2.4,0-5-0.2-7.4l-0.4-7.6l-1.4-14.9c-1-10-1.6-20-2-30c-0.5-10-0.8-20-0.9-30
		c-0.3-20.1-0.4-40.1-0.2-60.1c0.2-20,0.5-40,0.5-60c0.5,10,0.7,20,0.9,30l0.5,30c0.3,20,0.5,40,1.3,60s1.5,40,3.6,59.8l1.5,15
		l0.5,7.5c0.2,2.5,0.2,5,0.2,7.6c0.2,10.1-0.4,20.2-1.9,30.3c-3.1,20.1-10.7,39.3-20.8,56.7c-0.6,1.1-1.3,2.2-1.9,3.2l-2,3.2l-2,3.2
		l-2.1,3.1c-1.4,2.1-2.8,4.2-4.2,6.2l-4.5,6.1c-1.5,2.1-2.9,4.1-4.4,6.1l-4.3,6.1l-3.7,6.6l-2,3.2c-0.6,1.1-1.2,2.2-1.8,3.2
		l-3.6,6.5c-1.2,2.2-2.3,4.4-3.4,6.7s-2.3,4.4-3.3,6.7l-3.1,6.8l-1.5,3.4l-1.5,3.5l-2.9,6.9c-0.9,2.3-1.8,4.7-2.7,7s-1.8,4.7-2.7,7
		c-7,18.7-13.1,37.8-18.1,57.2C66.3,902.6,68.6,892.8,71.4,883.2z"/>
	<path class="st1" d="M153.6,174.9c-1.8,6-3.4,12-4.9,18s-2.8,12.1-3.9,18.2c-2.2,12.2-3.7,24.6-4.6,36.9c-2,24.8-3.3,49.6-4.4,74.5
		c-0.5,12.4-1.1,24.9-1.9,37.4s-1.6,24.9-3.2,37.4c-0.4,3.1-0.9,6.2-1.4,9.3s-1.2,6.2-1.8,9.2c-1.2,6.1-2.5,12.2-3.7,18.3
		s-2.2,12.2-3,18.3s-1.3,12.3-1.8,18.5c-0.7,12.4-0.8,24.8-0.5,37.2c0.1,6.2,0.3,12.4,0.6,18.6s0.8,12.4,1.4,18.5
		c2.5,24.7,7.1,49.3,10.4,74c1.6,12.4,2.9,24.8,3.2,37.3c0.2,6.2,0.1,12.5-0.2,18.7c-0.4,6.2-1.1,12.4-2.3,18.6
		c0.9-6.1,1.5-12.4,1.7-18.6c0.2-6.2,0.1-12.4-0.2-18.6c-0.6-12.4-2.2-24.8-4.1-37.1c-3.7-24.6-8.6-49.1-11.5-73.9
		c-0.7-6.2-1.3-12.4-1.7-18.7s-0.5-12.5-0.7-18.7c-0.3-12.5-0.4-25,0.2-37.5c0.4-6.3,0.9-12.5,1.7-18.8s1.8-12.4,3-18.5
		s2.4-12.2,3.6-18.4c0.6-3,1.2-6.1,1.7-9.1s1-6.1,1.3-9.2c1.6-12.3,2.5-24.7,3.3-37.1s1.3-24.9,2-37.3c1.3-24.9,2.6-49.8,5.1-74.6
		c1.1-12.5,2.8-24.9,5.2-37.1c1.2-6.1,2.6-12.3,4.2-18.3s3.3-12.1,5.2-18c3.9-11.9,8.3-23.6,13.2-35c4.9-11.5,10.5-22.7,16.7-33.5
		C170.1,127.9,160.7,151,153.6,174.9z"/>
	<path class="st1" d="M120.6,598.5c0.5,2.9,1,5.8,1.4,8.7s0.7,5.8,1,8.7c1.2,11.7,1.6,23.4,1.2,35.1c0,2.9-0.2,5.9-0.3,8.8l-0.2,4.4
		c-0.1,1.5-0.2,2.9-0.4,4.4c-0.3,2.9-0.5,5.9-0.8,8.8l-1.1,8.7c-0.2,1.5-0.3,2.9-0.6,4.4l-0.8,4.3c-0.5,2.9-1,5.8-1.5,8.7l-1.8,8.6
		l-0.9,4.3l-1,4.3l-2,8.5l-2.2,8.5c-0.7,2.8-1.5,5.7-2.3,8.5s-1.6,5.6-2.5,8.4l-2.6,8.4c-0.9,2.8-1.8,5.6-2.7,8.3
		c-1.8,5.6-3.8,11.1-5.8,16.6c-3.9,11-8.1,21.9-12.3,32.8s-8.3,21.8-11,33.2c0.9-5.8,2.2-11.5,3.9-17.1c0.8-2.8,1.7-5.6,2.5-8.4
		l2.7-8.3l11.2-33.2c7.3-22.1,14.1-44.4,19.3-67.1l1-4.2l0.9-4.3l1.8-8.5c0.5-2.9,1-5.7,1.5-8.6s1-5.7,1.4-8.6l1.2-8.6
		c0.3-2.9,0.6-5.8,0.9-8.7c0.1-1.4,0.3-2.9,0.4-4.3l0.3-4.3c0.2-2.9,0.5-5.8,0.6-8.7c0.6-11.6,0.6-23.3-0.1-34.9
		c-0.2-2.9-0.3-5.8-0.6-8.7s-0.6-5.8-0.9-8.7s-0.8-5.8-1.2-8.7s-1-5.8-1.6-8.6C118.3,587,119.6,592.7,120.6,598.5z"/>
	<path class="st1" d="M105.7,627.1c0,1.7-0.1,3.4-0.1,5.1c0,1.7-0.1,3.4-0.2,5.1c-0.3,6.8-0.8,13.6-1.4,20.4
		c-1.2,13.6-3.2,27.1-5.8,40.5s-6.1,26.6-10.5,39.6c-2.2,6.5-4.7,12.8-7.2,19.2l-7.4,19c-5,12.6-10,25.3-14.3,38.1
		c-2.2,6.4-4.1,12.9-5.8,19.4s-3.1,13.2-4.2,19.8s-2.1,13.4-3.1,20.1c-1,6.7-1.9,13.4-2.7,20.2c-1.8,13.5-3.3,27-4.8,40.5
		c1.4-27.2,3.7-54.3,7.5-81.3c1-6.8,2.3-13.5,3.9-20.1s3.5-13.2,5.6-19.8c4.2-13,9.2-25.7,14.1-38.3l7.5-19l3.7-9.4
		c0.6-1.6,1.2-3.2,1.8-4.8l1.7-4.8c4.5-12.8,8.2-25.8,11.1-39c2.9-13.2,5.2-26.5,6.9-40c1.8-13.5,3-27,3.6-40.6
		C105.7,620.3,105.7,623.7,105.7,627.1z"/>
	<path class="st1" d="M497.4,655.1c-1.1,7.2-2.4,14.4-3.8,21.6c-2.9,14.3-6.4,28.6-10.4,42.6c-8,28.2-18.5,55.6-31.4,81.9
		c-1.6,3.3-3.3,6.6-5,9.8l-2.6,4.8l-2.7,4.8c-1.8,3.2-3.6,6.4-5.4,9.5l-5.5,9.5c-3.8,6.3-7.5,12.5-11.3,18.8l-5.8,9.3l-5.9,9.2
		c-7.9,12.3-16.2,24.3-25.2,35.8c-4.6,5.7-9.3,11.3-14.4,16.5c-2.5,2.6-5.2,5.2-7.9,7.6s-5.5,4.8-8.3,7.1c5.4-5,10.6-10,15.4-15.4
		s9.3-11.2,13.6-17c8.6-11.7,16.5-24,24.1-36.3c7.7-12.4,15-24.9,22.3-37.5c3.6-6.4,7.3-12.6,10.8-19l2.6-4.8l2.5-4.8
		c1.7-3.2,3.3-6.5,4.9-9.7c1.7-3.2,3.2-6.5,4.7-9.8s3-6.6,4.5-9.9c2.9-6.7,5.6-13.4,8.3-20.1s5.2-13.6,7.6-20.4
		c2.4-6.9,4.7-13.7,6.8-20.7c1.2-3.4,2.2-6.9,3.2-10.4s2-7,3-10.5c1.9-7,3.7-14.1,5.4-21.2c3.4-14.1,6.3-28.4,8.5-42.9
		C499.5,640.7,498.6,647.9,497.4,655.1z"/>
	<path class="st1" d="M448.2,510.9c-7.7,10.8-14.9,22-21.4,33.5c-6.5,11.6-12.2,23.5-17.1,35.8c-2.5,6.1-4.7,12.3-6.6,18.7
		c-1.9,6.3-3.7,12.7-5,19.1l-1,4.8l-0.8,4.9c-0.6,3.2-1,6.5-1.4,9.8l-2.3,19.8c-1.6,13.2-3.3,26.4-5.3,39.6
		c-3.9,26.3-8.4,52.6-14.6,78.5c0.6-3.3,1.2-6.5,1.7-9.8l1.6-9.8c1-6.6,2-13.1,2.9-19.7c1.9-13.2,3.7-26.3,5.3-39.5
		s3.2-26.4,4.6-39.6c0.7-6.6,1.4-13.2,2.2-19.8c0.4-3.3,0.8-6.7,1.4-10l0.8-5l1-4.9c1.4-6.6,3.1-13.1,5.2-19.5
		c2.1-6.4,4.2-12.7,6.9-18.9c5.1-12.4,11.1-24.4,17.9-35.9c3.4-5.7,7-11.4,10.7-16.9s7.7-10.9,11.8-16.2c4.1-5.3,8.4-10.4,12.8-15.4
		c2.2-2.5,4.4-5,6.7-7.4s4.6-4.8,7.1-7.1C464.2,489.7,455.9,500.1,448.2,510.9z"/>
	<path class="st1" d="M431.2,727.8c-7.8,24.9-17,49.3-27.6,73.1c-5.4,11.9-11.5,23.5-18.3,34.7c-3.5,5.6-7.3,11-11.4,16.1
		c-4.2,5-8.7,9.8-13.5,14.3c-9.4,9.2-20.1,17-31.7,23.2c-5.8,3-12,5.3-18.3,7c-3.2,0.8-6.4,1.4-9.6,1.8c-1.6,0.2-3.2,0.3-4.9,0.4
		l-2.4,0.1c-0.4,0.1-0.8,0.1-1.2,0.1c-0.2,0-0.4,0-0.6,0.1s-0.5,0.1-0.5,0.3c0-0.2,0.3-0.3,0.5-0.3s0.4-0.1,0.6-0.1
		c0.4-0.1,0.8-0.1,1.2-0.1l2.4-0.2c1.6-0.2,3.2-0.4,4.8-0.7c3.2-0.6,6.4-1.3,9.5-2.3c6.2-1.9,12.1-4.5,17.7-7.8
		c11.2-6.3,21.3-14.6,30.4-23.7c2.3-2.3,4.5-4.6,6.7-7c2.2-2.4,4.3-4.8,6.3-7.3c4-5.1,7.6-10.4,10.9-15.9
		c6.6-11.1,12.6-22.6,17.9-34.4c5.4-11.8,10.3-23.8,15-35.9c4.7-12.1,9.1-24.3,13.3-36.6s8.2-24.6,12.2-37s7.6-24.8,11.3-37.3
		C446,677.8,439.1,702.9,431.2,727.8z"/>
	<path class="st1" d="M248.2,944.2c4.3,0,8.7-0.3,13-0.8c8.6-1.2,17-3.3,25.2-6.3c2.1-0.7,4.1-1.5,6.1-2.3l3-1.2l3-1.3l3-1.3
		c1-0.4,1.9-0.9,2.9-1.4l5.8-2.9c1.9-1,3.8-2.1,5.7-3.1l2.8-1.6c1-0.5,1.8-1.1,2.8-1.7l5.5-3.4c0.9-0.5,1.8-1.2,2.7-1.8l2.6-1.9
		c14-10.2,26.4-22.5,37.8-35.6s21.8-27.1,31-41.8l4.3-6.9l-0.9,8c-0.6,4.9-1.5,9.8-2.7,14.7c-1.2,4.8-2.6,9.5-4.2,14.2
		c-0.8,2.3-1.7,4.7-2.6,6.9c-0.9,2.3-1.9,4.6-2.9,6.8c-2,4.5-4.3,8.9-6.8,13.2c-5.2,8.4-11.4,16.1-18.5,23
		c-3.5,3.5-7.1,6.7-10.9,9.9c-1.9,1.6-3.8,3.1-5.7,4.6l-2.9,2.2c-1,0.7-2,1.4-2.9,2.2c7.4-6.3,14.9-12.7,21.4-19.9
		c0.8-0.9,1.7-1.8,2.4-2.7l2.4-2.8c1.5-1.9,3.1-3.7,4.5-5.7c2.9-3.8,5.6-7.9,8-12.1c2.3-4.2,4.4-8.6,6.3-13c1-2.2,1.9-4.5,2.7-6.7
		s1.7-4.5,2.4-6.8c1.5-4.7,2.8-9.3,3.9-14c1.1-4.7,1.9-9.4,2.4-14.2l3.5,1.1c-4.5,7.6-9.6,14.8-14.7,21.9
		c-5.2,7.1-10.7,14-16.5,20.6l-4.4,5c-1.5,1.6-3,3.2-4.5,4.8l-2.3,2.4c-0.8,0.8-1.6,1.5-2.4,2.3l-4.7,4.7
		c-6.4,6.1-13.3,11.7-20.5,16.8l-2.7,1.9c-0.9,0.6-1.8,1.3-2.8,1.8l-5.7,3.4c-1,0.5-1.9,1.2-2.9,1.7l-2.9,1.5c-2,1-3.9,2-5.9,3
		c-7.9,3.9-16,7.3-24.4,10c-8.4,2.8-17,4.6-25.8,5.4c-4.4,0.4-8.8,0.5-13.2,0.3c-4.4-0.1-8.7-0.7-13.1-1
		C239.4,944,243.8,944.2,248.2,944.2z"/>
	<path class="st1" d="M200.2,738.7c1.1,6.3,2.1,12.7,3.1,19.1s1.9,12.7,2.7,19.1s1.6,12.8,2.3,19.2s1.3,12.8,1.9,19.2
		c1.1,12.8,1.8,25.7,1.9,38.6c-1.7-12.8-3.4-25.5-5-38.3l-5-38.2l-5-38.2c-1.6-12.8-3.2-25.5-4.5-38.3
		C195.7,713.4,198.1,726,200.2,738.7z"/>
	<path class="st1" d="M439.3,611.8c-2.8,8.3-5.7,16.6-8.6,24.9l-4.4,12.4l-4.4,12.4c-3,8.2-5.9,16.5-9,24.7l-9.2,24.6l-9.5,24.5
		c-3.2,8.2-6.5,16.3-9.7,24.5l-5,12.2l-5.1,12.1l0.1-0.4c-1.1,5-2.5,9.9-4.2,14.8c-1.6,4.8-3.4,9.6-5.4,14.3
		c-4,9.3-8.6,18.4-13.8,27.1c-5.2,8.7-10.9,17.1-17,25.1c-1.5,2-3.1,4-4.8,5.9c-1.7,2-3.5,3.7-5.6,5.3c-1,0.8-2.2,1.4-3.5,1.8
		c-1.2,0.4-2.5,0.5-3.8,0.5c-2.5-0.1-5,0.1-7.5,0.6c2.5-0.6,5-0.9,7.5-1c1.2-0.1,2.5-0.3,3.6-0.7s2.2-1,3.2-1.8
		c1.9-1.6,3.7-3.4,5.2-5.3c1.6-1.9,3-3.9,4.5-6c2.9-4.1,5.6-8.4,8.3-12.6c1.4-2.1,2.6-4.3,3.9-6.4c0.6-1.1,1.3-2.1,1.9-3.2l1.8-3.3
		c4.9-8.7,9.3-17.8,13-27.1c1.8-4.6,3.6-9.3,5.1-14.1c1.6-4.7,2.9-9.5,3.9-14.4V783l0.1-0.2c6.8-16.1,13.2-32.4,19.6-48.7
		s12.7-32.7,19-49l18.9-49l9.5-24.5c3.2-8.2,6.3-16.3,9.6-24.5C445,595.2,442.1,603.5,439.3,611.8z"/>
	<path class="st1" d="M522,679.8c0.7,11.3,1.6,22.6,2.8,33.8c0.3,2.8,0.6,5.6,0.9,8.4l1,8.4l1.1,8.4c0.4,2.8,0.7,5.6,1.2,8.4
		c0.9,5.6,1.7,11.2,2.7,16.7l1.5,8.3l1.7,8.3c1,5.5,2.4,11,3.7,16.5s2.8,11,4.1,16.5l8.3,33l8.3,32.9c2.7,11,5.6,21.9,8.4,32.9
		c-7.2-21.5-13.6-43.2-19.7-65.1c-3.1-10.9-6-21.9-8.9-32.8l-2.2-8.2l-1.1-4.1l-1-4.2c-1.3-5.5-2.7-11-3.8-16.6
		c-4.5-22.3-7.7-44.8-9.3-67.5c-1.8-22.6-2.2-45.3-1.1-68C520.9,657.2,521.3,668.5,522,679.8z"/>
	<path class="st1" d="M512.5,747.6c2,9,3.8,18,5.7,27l5.5,27l5.4,27c1.7,9.1,3.5,18.1,5.2,27.1c3.4,18,6.7,36.1,9.8,54.2
		c-4.8-17.8-8.9-35.7-12.9-53.6c-2-8.9-3.9-17.9-5.8-26.9l-5.6-27l-5.3-27c-1.7-9-3.5-18.1-5.1-27.1c-3.3-18.1-6.5-36.2-9.2-54.3
		C504.6,711.8,508.6,729.7,512.5,747.6z"/>
	<path class="st1" d="M568,572c7.9,3.3,15.7,6.7,23.5,10.1c15.6,7,30.9,14.7,45.6,23.3l2.8,1.6c0.9,0.6,1.8,1.1,2.7,1.7
		c1.8,1.2,3.6,2.3,5.4,3.5l2.7,2c0.9,0.7,1.7,1.4,2.5,2.2l1.2,1.1l1.2,1.2c0.8,0.8,1.6,1.5,2.3,2.4c1.4,1.7,2.8,3.4,4.1,5.1
		c1.3,1.7,2.5,3.6,3.7,5.4c2.3,3.7,4.4,7.5,6.3,11.4c3.7,7.8,6.8,15.9,9.2,24.1c2.5,8.2,4.6,16.6,6.3,25c3.3,16.8,5.8,33.8,7.3,50.8
		c0.3,4.3,0.4,8.6,0.5,12.9s0.2,8.5,0.3,12.8c0.2,8.5,0.3,17,0.4,25.6c0.1,17.1,0.1,34.2,0.1,51.2l-0.2,25.6l-0.1,12.8l-0.2,12.8
		l-0.4-12.8l-0.3-12.8l-0.7-25.6l-1.3-51.1l-0.7-25.5c-0.1-4.3-0.3-8.5-0.5-12.8c-0.2-4.2-0.4-8.5-0.7-12.7
		c-1.6-16.9-4.1-33.7-7.4-50.3c-1.7-8.3-3.7-16.5-6.2-24.6c-1.2-4-2.5-8.1-4-12s-3.1-7.9-4.9-11.6c-1.8-3.8-3.7-7.5-5.9-11.1
		c-1.1-1.8-2.3-3.5-3.5-5.2s-2.5-3.3-3.9-4.9c-2.7-3.1-5.8-5.9-9.1-8.3c-1.7-1.2-3.5-2.3-5.3-3.5c-0.9-0.6-1.8-1.2-2.7-1.7l-2.7-1.7
		c-14.5-8.9-29.6-16.7-44.9-24.2c-15.3-7.5-30.8-14.5-46.5-21.3C552.2,565.7,560.1,568.8,568,572z"/>
	<path class="st1" d="M598.1,523.1l-6.9-33.8l-6.7-33.9c-8.8-45.2-17.2-90.5-24.4-136c-0.9-5.7-1.8-11.4-2.6-17.1l-1.3-8.5l-0.6-4.3
		l-0.6-4.3l-2.2-17.1c-0.7-5.7-1.6-11.4-2.8-17c-1.1-5.6-2.4-11.2-3.9-16.8c-1.4-5.6-3-11.1-4.8-16.5c-3.5-10.9-7.5-21.7-12-32.3
		s-9.4-21-14.7-31.2c-5.2-10.2-10.8-20.3-16.7-30.2s-12-19.6-18.4-29.2s-13-19-20.2-28c7.3,8.9,14.1,18.2,20.8,27.6
		c6.6,9.4,12.9,19.1,18.9,28.9s11.7,19.9,17.1,30.1s10.3,20.6,14.9,31.2c9.1,21.2,16.6,43.2,21,65.9c1.1,5.7,2,11.4,2.7,17.1
		l2.2,17.1l0.5,4.3l0.6,4.3l1.2,8.5c0.8,5.7,1.6,11.4,2.6,17.1c7.2,45.5,15.3,90.8,23.8,136s17.3,90.5,26.5,135.6
		C607.5,568.2,602.8,545.7,598.1,523.1z"/>
	<path class="st1" d="M575.7,545.3c-2.4-10.7-4.8-21.4-6.9-32.2c-2.1-10.8-4.2-21.6-6-32.4c-1.8-10.8-3.4-21.7-4.8-32.6l3.1,0.1
		c-5.2,31.9-9.6,63.8-13.1,95.9c-1.8,16-3.2,32.1-4.2,48.2c-1,16.1-1.6,32.2-1.2,48.2c0.2,8,0.9,16,1.9,23.9
		c1.1,8,2.3,15.9,3.5,23.9c2.4,16,5.1,31.9,8,47.7c2.9,15.9,6.1,31.7,9.6,47.4c1.8,7.9,3.7,15.7,5.9,23.5c2.1,7.8,4.6,15.5,7.6,23
		c-1.7-3.6-3.2-7.4-4.6-11.2c-1.4-3.8-2.7-7.6-3.8-11.5c-2.4-7.7-4.5-15.5-6.5-23.3c-4.1-15.7-7.5-31.5-10.6-47.3
		c-3.2-15.8-6.1-31.7-8.8-47.7c-1.3-8-2.6-16-3.8-24c-1.2-8.1-1.9-16.2-2.2-24.3s-0.2-16.2-0.1-24.3s0.6-16.2,1.1-24.3
		c1-16.2,2.5-32.2,4.3-48.3s3.9-32.1,6.2-48.1s4.8-32,7.7-47.9l1.9-10.6l1.1,10.7c1.1,10.9,2.5,21.8,4.2,32.6
		c1.6,10.8,3.5,21.6,5.4,32.4c1.9,10.8,3.9,21.6,6,32.3l3.2,16.1c1.1,5.4,2.2,10.8,3.3,16.1C580.7,566.8,578.1,556,575.7,545.3z"/>
	<path class="st1" d="M418.8,597.1c2.8-1.3,5.6-2.8,8.3-4.3c5.4-3.1,10.7-6.5,15.8-10.1s10.3-7.3,15.3-11s9.8-7.8,14.1-12.3
		c8.7-9,16.3-19,22.8-29.7c3.3-5.3,6.4-10.8,9.2-16.3c2.8-5.5,5.5-11.2,7.8-17l2.2-5.5l-0.5,5.9c-1.1,12.7-2.6,25.2-4.4,37.8
		c-1.7,12.6-3.7,25.1-5.9,37.6c-4.4,25-9.9,49.8-16.5,74.3c-1.6,6.2-3.5,12.2-5.2,18.3s-3.7,12.1-5.5,18.2
		c-3.6,12.1-7,24.4-10.1,36.6c-3.1,12.3-5.9,24.7-8.9,37c-1.4,6.2-3.3,12.3-5.8,18.1c-2.6,5.8-6,11.3-10,16.2
		c3.9-5,7.1-10.5,9.6-16.3c2.3-5.9,4.1-12,5.4-18.2c1.4-6.2,2.7-12.4,4.1-18.6c1.4-6.2,2.8-12.4,4.3-18.5c3-12.3,6.3-24.6,9.8-36.8
		l5.4-18.3c1.8-6.1,3.6-12.1,5.1-18.3c6.5-24.5,11.9-49.2,16.3-74.2c2.3-12.5,4.2-25,6-37.5s3.3-25.1,4.5-37.7l1.7,0.4
		c-4.8,11.7-10.6,22.9-17.4,33.5c-6.6,10.7-14.4,20.7-23.2,29.7c-4.4,4.5-9.2,8.6-14.4,12.2c-5.1,3.6-10.3,7.3-15.5,10.7
		s-10.5,6.8-16,9.8C424.4,594.3,421.6,595.7,418.8,597.1c-2.8,1.2-5.8,2.2-8.7,3.4C413.1,599.5,416,598.5,418.8,597.1z"/>
	<path class="st1" d="M484.7,588.2c-1.7,9.7-3.5,19.3-5.5,29l-3,14.5c-1.1,4.8-2.1,9.6-3.2,14.4c-2.2,9.6-4.6,19.2-7.4,28.6
		c2-9.6,3.9-19.3,5.8-28.9l5.8-28.9l5.9-28.9c2-9.6,4.1-19.3,6.2-28.9C487.9,568.8,486.4,578.6,484.7,588.2z"/>
	<path class="st1" d="M523.9,514.8c-2.3,12.5-4.7,25-6.8,37.5c-2.3,12.5-4.3,25-6.2,37.5c-0.5,3.1-0.9,6.3-1.4,9.4l-1.2,9.4l-1,9.5
		c-0.2,1.6-0.2,3.2-0.3,4.7l-0.3,4.8c0-3.2,0-6.4,0.1-9.5l0.6-9.5l0.9-9.5c0.3-3.2,0.8-6.3,1.1-9.5s0.8-6.3,1.3-9.5
		c0.4-3.1,0.9-6.3,1.4-9.4l1.5-9.4l1.6-9.4c2.3-12.5,4.7-25,7.3-37.4c1.3-6.2,2.6-12.4,4.1-18.6c1.5-6.2,2.9-12.4,4.5-18.5
		L523.9,514.8z"/>
	<path class="st1" d="M392.3,93c7.6,10,15.1,20.1,22.3,30.3c14.4,20.5,28.1,41.6,40.6,63.4c6.3,10.9,12.2,22,17.8,33.3
		c5.5,11.3,10.7,22.8,15.2,34.5c4.6,11.7,8.5,23.7,11.7,35.9c1.5,6.1,2.9,12.3,3.9,18.5c0.5,3.1,1,6.2,1.4,9.3l1.4,9.3
		c3.5,24.9,6.8,49.8,8.5,74.9c0.9,12.6,1,25.2,0.3,37.8c-0.4,6.3-1.2,12.6-2.3,18.8c-1.2,6.2-2.8,12.4-4.8,18.4
		c-2,6-4.4,11.8-7.2,17.5s-5.8,11.2-8.8,16.7c-6,11-12.6,21.7-19.8,32.1c-7.2,10.3-15.4,19.9-24.5,28.6c-9.1,8.7-19.4,16.1-30.5,22
		c10.9-6.2,21-13.8,29.9-22.6s16.9-18.5,23.9-28.9s13.5-21.1,19.4-32.1c3-5.5,5.9-11.1,8.5-16.7c2.6-5.6,4.9-11.4,6.9-17.4
		c3.8-11.9,6-24.2,6.7-36.6c0.7-12.5,0.5-25-0.5-37.4c-1.8-25-5.2-49.8-8.8-74.6l-1.3-9.3c-0.5-3.1-0.9-6.2-1.4-9.3
		c-1-6.1-2.3-12.2-3.8-18.3c-3.1-12.1-6.9-24-11.5-35.6c-9-23.3-20.2-45.8-32.5-67.6s-25.7-43.1-39.8-63.7
		c-14.1-20.8-29-40.9-44.8-60.4C376.8,73.3,384.7,83.1,392.3,93z"/>
	<path class="st1" d="M95.6,638.7c-0.5,0-0.9,0.1-1.4,0.2c-0.9,0.2-1.8,0.4-2.7,0.7c-1.8,0.6-3.5,1.3-5.2,2.1
		c-3.4,1.6-6.6,3.5-9.7,5.6c-6.2,4.2-11.9,9.1-17,14.6c-10.2,10.9-18.8,23.3-25.4,36.7c-6.7,13.4-12,27.4-15.9,41.9
		c-3.9,14.4-6.8,29.1-8.7,44c-0.9,7.4-1.7,14.9-2.2,22.4s-0.9,15-1.2,22.5l-2.1,45.2l-1,22.6l-1,22.6c-0.3,7.5-0.6,15-0.8,22.6
		c-0.1,3.8-0.2,7.5-0.2,11.3c0,1.9,0,3.8,0,5.7c0,0.9,0.1,1.9,0.1,2.8c0,0.5,0.1,0.9,0.1,1.4c0,0.2,0.1,0.5,0.1,0.7
		c0,0.1,0.1,0.2,0.1,0.3s0.1,0.1,0.1,0.1c0.1,0,0.2-0.1,0.1-0.1s-0.1,0.1-0.1,0.1c-0.1,0-0.1-0.1-0.1-0.1c-0.1-0.1-0.1-0.2-0.1-0.3
		c-0.1-0.2-0.1-0.5-0.2-0.7c-0.1-0.5-0.2-0.9-0.2-1.4c-0.1-0.9-0.2-1.9-0.3-2.8c-0.2-1.9-0.2-3.8-0.3-5.7c-0.1-3.8-0.2-7.5-0.3-11.3
		C0,934.9,0,927.3,0,919.8l0.3-22.6l0.6-22.8c0.4-15.1,0.9-30.1,1.5-45.2c0.3-7.5,0.6-15.1,1.1-22.6s1.2-15.1,2.2-22.6
		c1.9-15,4.9-29.9,9-44.5s9.7-28.8,16.8-42.2c7-13.5,16-25.9,26.8-36.7c5.4-5.3,11.4-10.1,17.8-14.1c3.2-2,6.6-3.8,10.1-5.3
		c1.7-0.7,3.5-1.4,5.4-1.9c0.9-0.3,1.8-0.4,2.8-0.6C94.7,638.6,95.2,638.6,95.6,638.7c0.5-0.1,1,0,1.4,0.2
		C96.6,638.7,96.1,638.6,95.6,638.7z"/>
	<path class="st1" d="M336,689c-7.4,0.3-14.8,0.3-22.2,0.3c-3.7-0.1-7.4-0.1-11.1-0.3s-7.4-0.3-11.1-0.6c-7.4-0.6-14.8-1.3-22.1-2.5
		L264,685c-1.8-0.3-3.6-0.7-5.5-1l-5.4-1l-5.4-1.1c-7.2-1.5-14.4-3.2-21.6-5.1c-3.6-1-7.1-2-10.6-3.2c-3.6-1.1-7-2.5-10.2-4.3
		c1.7,0.8,3.4,1.4,5.2,1.9c1.8,0.5,3.6,1,5.3,1.4c3.6,0.9,7.2,1.6,10.8,2.3c7.2,1.4,14.5,2.7,21.7,3.9l10.9,1.8
		c1.8,0.3,3.6,0.6,5.5,0.8l5.4,0.7c7.2,1,14.5,1.7,21.9,2.2c3.7,0.3,7.3,0.5,11,0.7l11,0.4c3.7,0.1,7.3,0.2,11,0.3s7.3,0.1,11,0.1
		c14.7,0,29.4-0.3,44.2-0.8C365.4,687.3,350.7,688.6,336,689z"/>
	<path class="st1" d="M576.1,579.7c1.1,0.6,2,1.6,2.5,2.7c0.4,1.2,0.5,2.6,0.2,3.8s-0.7,2.4-1.3,3.4c-2.3,4.3-5.8,7.5-9.1,10.6
		c-3.4,3.1-7,5.9-10.9,8.5c-1.9,1.3-3.9,2.4-6,3.5c-1,0.5-2.1,1-3.1,1.5l-1.6,0.7l-0.8,0.3l-0.4,0.2c-0.1,0.1-0.3,0.1-0.3,0.2
		c0-0.2,0.2-0.2,0.2-0.3l0.3-0.3l0.7-0.5l1.4-1c0.9-0.7,1.9-1.3,2.8-2c1.8-1.3,3.6-2.7,5.4-4.1c3.5-2.8,6.9-5.8,10.2-8.8
		c1.7-1.5,3.3-3.1,4.9-4.6c1.6-1.5,3-3.2,4.2-5s2.1-3.7,1.7-5.6c-0.2-1-0.8-1.9-1.6-2.5c-0.9-0.7-1.8-1.3-2.9-1.6
		C573.9,578.8,575,579.1,576.1,579.7z"/>
	<path class="st1" d="M430,50c-1.6-0.7-3.2-1.4-4.8-2.1l-4.8-2c-6.5-2.6-13.1-4.8-19.8-6.7c-3.3-1-6.7-1.8-10.1-2.6
		c-1.7-0.3-3.4-0.7-5.1-1l-2.6-0.5l-2.6-0.4l-5.2-0.8l-5.2-0.5c-0.9-0.1-1.7-0.2-2.6-0.3l-2.6-0.1c-1.7-0.1-3.5-0.2-5.3-0.3
		c7-0.5,14.1-0.4,21.1,0.4l2.5,0.3l2.6,0.4c1.7,0.3,3.5,0.6,5.2,0.9c3.4,0.8,6.9,1.5,10.3,2.5c6.8,1.9,13.4,4.3,19.9,7.2
		c6.5,2.8,12.6,6.2,18.5,10.2C436.3,53.1,433.2,51.5,430,50z"/>
	<path class="st1" d="M266.9,37.6c-9,2.4-17.7,5.7-26,9.9c-4.1,2.1-8.1,4.5-11.9,7.2s-7.5,5.5-11.2,8.4c-3.7,2.9-7.3,5.8-10.8,8.9
		c-1.8,1.5-3.5,3.1-5.1,4.8c-0.8,0.8-1.6,1.7-2.4,2.6s-1.5,1.8-2,2.9c0.5-1.1,1-2.1,1.8-3c0.7-0.9,1.4-1.9,2.2-2.8
		c1.5-1.8,3.2-3.5,4.8-5.1c3.4-3.3,6.9-6.4,10.5-9.4c3.6-3,7.3-5.9,11.1-8.7c3.8-2.8,7.9-5.3,12.1-7.4c8.4-4.3,17.4-7.5,26.6-9.7
		s18.6-3.4,28-3.5C285.2,33.5,275.9,35.2,266.9,37.6z"/>
	<path class="st1" d="M173.8,104c0.1,3.9,0.7,7.9,2,11.6c0,0-10.4,22.5-10.2,22.1s2.2-18.9,2.2-23.7s0.1-27.8,0.6-27.8
		s5.8,4.2,5.8,4.2C173.8,95,173.7,99.5,173.8,104z"/>
	<path class="st1" d="M216.5,168c-1.6,1-3.2,2.1-4.8,3s-3.2,2-4.8,3c-3.2,2-6.3,4.2-9.3,6.3l-4.6,3.3c-1.5,1.1-3,2.3-4.5,3.4
		l-2.2,1.7c-0.7,0.6-1.4,1.2-2.2,1.8l-4.3,3.6c-5.6,5-11,10.4-15.9,16.1c4.1-6.5,8.9-12.4,14.3-17.8c5.5-5.3,11.4-10.2,17.6-14.6
		c3.2-2.1,6.3-4.3,9.6-6.3c1.6-1,3.3-2,4.9-2.9s3.3-1.9,5-2.8c6.7-3.6,13.7-6.7,20.8-9.2C229.5,160.3,222.9,164,216.5,168z"/>
	<path class="st1" d="M213.2,162c-4.2,2.6-8.4,5.2-12.5,8c-1,0.7-2.1,1.3-3.1,2.1l-3,2.1c-2,1.4-4,2.9-5.9,4.4s-3.8,3.1-5.8,4.6
		c-0.9,0.8-1.8,1.6-2.7,2.4s-1.9,1.6-2.7,2.5c-3.5,3.4-6.8,7.1-9.9,10.9s-6.2,7.6-9,11.7c-1.4,2-2.8,4.1-4,6.2
		c-0.6,1.1-1.2,2.2-1.7,3.3c-0.6,1.1-1,2.2-1.4,3.4c0.5-2.5,1.3-4.8,2.4-7.1c1-2.3,2.2-4.5,3.5-6.6c2.6-4.3,5.4-8.4,8.5-12.4
		c1.5-2,3.2-3.9,4.7-5.8s3.3-3.8,5-5.6c0.8-1,1.8-1.8,2.7-2.6s1.8-1.7,2.8-2.5l2.9-2.4c0.9-0.8,1.9-1.6,2.9-2.4
		c8-6,16.4-11.4,25.2-16.2c2.2-1.2,4.4-2.4,6.6-3.5s4.4-2.3,6.7-3.3c4.5-2.1,9-4.2,13.7-6C230.3,152,221.7,156.9,213.2,162z"/>
	<path class="st1" d="M216,151.5c-3.8,2.4-7.5,4.7-11.2,7.2c-1.9,1.2-3.7,2.5-5.5,3.7c-1.8,1.3-3.6,2.5-5.4,3.9
		c-3.6,2.6-7.1,5.3-10.4,8.2c-1.7,1.4-3.4,2.8-5,4.4s-3.2,3-4.8,4.6c-3.1,3.1-6.2,6.3-9,9.8c-1.4,1.7-2.8,3.5-4.1,5.2
		c-0.6,0.9-1.3,1.8-1.9,2.8c-0.6,0.9-1.2,1.9-1.7,2.9c0.7-2.1,1.7-4.2,2.8-6.1c1.1-1.9,2.3-3.9,3.6-5.7c2.6-3.7,5.5-7.2,8.5-10.5
		c6.1-6.6,12.9-12.7,20.2-18c7.3-5.3,14.9-10.1,22.7-14.4c7.8-4.4,15.9-8.3,24.2-11.8C231.2,142.2,223.6,146.8,216,151.5z"/>
	<path class="st1" d="M219.2,137.7c-7.7,3.8-14.9,8.4-21.7,13.6c-3.4,2.6-6.6,5.4-9.8,8.3c-1.6,1.4-3.2,2.9-4.8,4.4l-4.7,4.5
		c-3.1,3-6,6.1-8.8,9.4c-1.4,1.6-2.7,3.3-4,5c-0.6,0.9-1.2,1.8-1.8,2.7c-0.6,0.9-1,1.9-1.4,2.9c0.5-2.1,1.4-4.1,2.5-6
		s2.3-3.8,3.5-5.6c2.6-3.5,5.4-6.9,8.3-10.1c5.9-6.4,12.3-12.4,19.1-17.9c3.5-2.7,7.1-5.1,10.9-7.4l2.8-1.6l2.9-1.5
		c1.9-1.1,3.9-1.9,5.9-2.8c8-3.4,16.5-5.9,25.2-6.4C235,131,226.9,133.9,219.2,137.7z"/>
	<path class="st1" d="M227.2,122.8c-2.7,0.9-5.3,1.9-7.9,2.8s-5.2,2.1-7.8,3.2c-2.6,1.1-5.1,2.4-7.6,3.6s-4.9,2.7-7.3,4.1
		c-4.8,3-9.1,6.5-13,10.6c3.1-4.9,7-9.1,11.7-12.5c2.3-1.7,4.7-3.3,7.2-4.7s5.1-2.7,7.7-3.9c5.3-2.3,10.7-4.1,16.2-5.5
		c2.8-0.8,5.6-1.3,8.4-1.8s5.6-0.8,8.5-0.9C238,119.3,232.6,121,227.2,122.8z"/>
	<path class="st1" d="M233.9,106.3c-3.5,0.9-7,2.1-10.3,3.6c-6.6,3-12.8,6.8-18.5,11.4c-2.9,2.3-5.7,4.7-8.5,7
		c-2.8,2.3-5.5,4.8-8.3,7.2c-5.4,4.9-10.8,10-15.9,15.3c4.3-6.1,9-11.8,14.3-17c2.5-2.7,5.2-5.2,8-7.7c2.8-2.5,5.6-4.9,8.5-7.2
		c1.5-1.1,3-2.2,4.5-3.4l2.4-1.5c0.8-0.5,1.6-1.1,2.4-1.5c1.7-0.9,3.3-1.8,5-2.6s3.4-1.5,5.2-2.2c3.5-1.3,7.2-2.2,10.9-2.8
		c3.7-0.6,7.4-0.7,11.1-0.3C241,104.8,237.4,105.4,233.9,106.3z"/>
	<path class="st1" d="M238.2,96.2c-3.2,0.6-6.5,1.3-9.6,2.1c-1.6,0.4-3.2,0.8-4.8,1.3s-3.1,1-4.7,1.4s-3.1,1-4.6,1.6s-3,1.2-4.5,1.8
		s-2.9,1.3-4.4,2.1l-2.1,1.2c-0.7,0.4-1.4,0.8-2.1,1.2c-2.7,1.7-5.3,3.7-7.9,5.7s-5.2,4-7.7,6.1c-1.3,1.1-2.5,2.1-3.7,3.2
		c-0.6,0.6-1.2,1.1-1.8,1.7c-0.6,0.6-1.1,1.2-1.6,1.9c0.7-1.5,1.6-2.9,2.7-4.2c1-1.3,2.2-2.5,3.3-3.8c2.3-2.4,4.8-4.7,7.3-6.9
		c1.2-1.1,2.6-2.2,3.8-3.2s2.6-2.1,4-3.1c0.7-0.5,1.4-1,2.2-1.4l2.2-1.3c1.5-0.8,3-1.5,4.5-2.2c6.2-2.6,12.7-4.5,19.3-5.7
		c1.6-0.3,3.3-0.6,5-0.8s3.3-0.4,5-0.5c3.3-0.3,6.7-0.4,10-0.3C244.7,94.9,241.4,95.5,238.2,96.2z"/>
	<path class="st1" d="M294.9,164c10.6,2.6,21.2,5.3,31.8,8.1c21.1,5.6,42.2,11.7,62.8,19.1c10.3,3.7,20.6,7.2,30.9,11.2
		s20.5,8,30.2,13.2c5,2.5,9.6,5.5,13.9,9.1c4.1,3.8,7.6,8.2,10.3,13c5.6,9.5,9.5,19.8,13.3,30c-2.3-5-4.3-10.1-6.7-15
		c-2.3-4.9-5-9.7-7.9-14.3c-2.8-4.6-6.3-8.8-10.3-12.4c-4.2-3.3-8.8-6.2-13.7-8.5c-9.8-4.7-19.9-8.8-30.2-12.5
		c-10.2-3.8-20.5-7.4-30.9-11l-7.7-2.7l-7.7-2.6l-7.8-2.5l-7.8-2.4c-10.4-3.3-20.9-6.3-31.4-9.4s-21-5.9-31.6-8.9
		s-21.1-5.8-31.6-8.8C273.7,158.9,284.3,161.5,294.9,164z"/>
	<path class="st1" d="M310.4,159.8c8.4,2.6,16.7,5.3,25,7.9l24.9,8.1c8.3,2.8,16.6,5.6,24.8,8.4s16.5,5.5,24.9,8.1
		s16.6,5.4,24.8,8.5c4.1,1.6,8.1,3.2,12.1,5.1c2,0.9,3.9,2,5.8,3.1c1.9,1.1,3.6,2.6,5,4.2c-1.5-1.5-3.3-2.8-5.3-3.8
		c-1.9-1-3.9-2-5.9-2.8c-4-1.7-8.1-3.1-12.3-4.5c-8.2-2.7-16.6-5.2-25-7.6c-8.4-2.4-16.8-4.9-25.1-7.7s-16.6-5.5-24.8-8.3l-24.9-8.3
		l-24.8-8.4c-16.5-5.6-33-11.4-49.5-17.4C277,149.5,293.7,154.5,310.4,159.8z"/>
	<path class="st1" d="M266.1,136.4l6,1.9l12,3.8c8,2.6,15.9,5.1,23.9,7.7s15.9,5.3,23.8,7.9l23.8,8.1c15.8,5.5,31.6,10.9,47.4,16.3
		c7.9,2.7,15.8,5.4,23.7,8.3c3.9,1.5,7.9,2.9,11.7,4.6s7.7,3.6,10.8,6.4c-1.7-1.3-3.4-2.3-5.3-3.2c-1.9-0.9-3.8-1.7-5.8-2.4
		c-3.9-1.5-7.9-2.8-11.9-4l-24-7.4c-8-2.5-16-5-23.9-7.7c-7.9-2.6-15.8-5.4-23.8-8.1l-23.7-8.2c-7.9-2.8-15.8-5.5-23.7-8.4
		c-7.9-2.8-15.7-5.7-23.6-8.5l-11.8-4.4c-3.9-1.5-7.9-2.9-11.7-4.7C262.1,135.2,264.1,135.8,266.1,136.4z"/>
	<path class="st1" d="M281.2,133.8c5.3,1.3,10.5,2.6,15.8,3.9s10.5,2.8,15.7,4.2s10.4,2.9,15.6,4.5s10.4,3.2,15.5,4.9
		s10.3,3.4,15.4,5.3l7.6,2.8c2.6,1,5.1,2,7.6,3c1.3,0.5,2.5,1.1,3.8,1.6l3.7,1.7c2.5,1.1,4.9,2.4,7.3,3.7l-3.8-1.5
		c-1.3-0.5-2.5-1-3.8-1.4c-2.6-0.9-5.1-1.8-7.7-2.7c-2.6-0.8-5.1-1.7-7.7-2.5l-7.7-2.5c-5.2-1.6-10.3-3.2-15.5-4.8l-15.5-4.7
		l-31.1-9.4l-31.1-9.5C270.5,131.3,275.9,132.5,281.2,133.8z"/>
	<path class="st1" d="M309.6,133.4c15.5,2.5,30.8,6,45.9,10.5c7.5,2.5,15,4.9,22.1,8.5c3.6,1.6,7,3.6,10.5,5.4
		c3.5,1.9,6.9,3.8,10.3,5.7c13.7,7.6,27,15.9,39.8,24.9c-6.7-4-13.5-7.9-20.3-11.7s-13.7-7.5-20.6-11.2l-10.4-5.4
		c-3.5-1.8-6.9-3.7-10.5-5.2c-7.1-3.2-14.3-6-21.7-8.2c-7.5-2.2-15-4.3-22.6-6.1l-5.7-1.4l-5.7-1.2c-3.8-0.9-7.6-1.6-11.5-2.4
		c-7.7-1.5-15.4-2.8-23.1-4.2s-15.4-2.5-23.2-3.7C278.6,128.9,294.1,130.8,309.6,133.4z"/>
	<path class="st1" d="M263.1,122.3l3-0.2c2-0.1,4-0.2,6-0.2c3.9-0.1,7.9-0.1,11.9,0c7.9,0.2,15.9,0.7,23.8,1.5
		c15.8,1.6,31.6,4.5,46.8,9.6c3.8,1.3,7.5,2.8,11.2,4.5c1.8,0.9,3.6,1.8,5.4,2.6s3.6,1.8,5.3,2.7c7,3.6,14.1,7.4,21,11.3
		c13.9,7.7,27.5,16,40.7,24.8c-6.9-3.9-13.8-7.8-20.8-11.6s-14-7.6-21-11.2s-14.1-7.3-21.2-10.8c-3.5-1.7-7.1-3.6-10.7-5.2
		c-3.6-1.6-7.2-3-10.9-4.3c-7.4-2.5-15-4.6-22.7-6.2c-7.7-1.7-15.5-2.9-23.3-4c-7.8-1-15.7-1.8-23.6-2.4c-3.9-0.3-7.9-0.6-11.9-0.7
		c-2-0.1-3.9-0.1-5.9-0.2L263.1,122.3c-0.9,0-1.9,0-2.9,0.1C261.2,122.5,262.1,122.3,263.1,122.3z"/>
	<path class="st1" d="M305.5,113.8c7.5,0.5,15.1,1.4,22.5,2.8c7.5,1.4,14.8,3.3,22,5.7c14.3,4.9,28.2,10.9,41.6,17.8
		c6.7,3.4,13.3,7,19.8,10.8c3.2,1.9,6.5,3.9,9.7,5.9c1.6,1,3.2,2.1,4.7,3.1c0.8,0.5,1.5,1.1,2.3,1.6l1.1,0.8l0.5,0.4l0.3,0.2
		l0.1,0.1v0.1H430V163l-0.1-0.1l-0.3-0.2l-0.6-0.4l-1.2-0.7c-0.8-0.5-1.6-0.9-2.4-1.4c-1.6-0.9-3.3-1.9-4.9-2.8
		c-3.3-1.8-6.7-3.6-10-5.3c-6.7-3.5-13.4-6.9-20.2-10s-13.6-6.3-20.5-9.1s-13.9-5.6-21-7.9c-7.1-2.4-14.3-4.3-21.6-5.7
		c-7.3-1.5-14.7-2.5-22.2-3.2s-14.9-1.1-22.4-1.3s-15,0-22.5,0.4C275.2,113.2,290.4,112.7,305.5,113.8z"/>
	<path class="st1" d="M272.1,105.4c3.5-0.4,7.1-0.7,10.6-0.9c7.1-0.3,14.2-0.1,21.3,0.6c14.2,1.4,28.2,4.3,41.7,8.7
		s26.7,9.6,39.6,15.6c12.9,5.8,25.4,12.7,37.2,20.5c-6.2-3.5-12.5-6.6-18.8-9.7c-6.4-3.1-12.8-6-19.3-8.7s-13-5.4-19.6-7.8
		c-3.3-1.2-6.6-2.5-9.9-3.6s-6.6-2.3-10-3.4c-6.7-2.2-13.4-4.1-20.3-5.6c-6.8-1.6-13.8-2.8-20.7-3.7l-5.2-0.6l-5.2-0.4
		c-3.5-0.2-7-0.4-10.5-0.4c-7.1-0.2-14.1,0.3-21.1,1.4C265.1,106.5,268.6,105.8,272.1,105.4z"/>
	<path class="st1" d="M266.2,99l2.4-0.9l2.4-0.8c3.3-1,6.6-1.8,10-2.4c6.8-1.1,13.6-1.5,20.5-1.2l5.1,0.4c1.7,0.1,3.4,0.4,5.1,0.6
		l2.5,0.3c0.9,0.1,1.7,0.3,2.5,0.5l5,1c1.7,0.4,3.3,0.8,5,1.3s3.3,0.8,4.9,1.4c3.2,1,6.5,2,9.7,3.1l4.8,1.7l4.8,1.8
		c3.2,1.2,6.3,2.5,9.5,3.9c6.2,2.7,12.5,5.5,18.5,8.6c12.2,6.1,24,12.9,35.3,20.4c-5.9-3.2-11.9-6.4-18-9.4c-6-3.1-12.1-6-18.3-8.8
		c-3.1-1.4-6.2-2.8-9.2-4.2c-3.1-1.4-6.2-2.8-9.3-4s-6.2-2.6-9.4-3.7l-4.7-1.8l-4.8-1.7c-3.2-1.2-6.4-2.2-9.6-3.2
		c-1.6-0.6-3.2-0.9-4.8-1.4l-4.9-1.3c-6.5-1.5-13.2-2.6-19.9-3.2c-6.7-0.5-13.4-0.4-20.1,0.3s-13.3,2.3-19.6,4.9
		C263.2,100.4,264.7,99.6,266.2,99z"/>
	<path class="st1" d="M265.9,92.3c0.7-0.3,1.4-0.6,2.2-0.8c1.4-0.5,2.9-1,4.4-1.4c3-0.9,6-1.6,9-2.3c6-1.3,12.2-2.2,18.3-2.7
		c6.2-0.5,12.4-0.5,18.6,0c3.1,0.3,6.2,0.6,9.2,1.2c1.6,0.2,3,0.5,4.6,0.9s3,0.7,4.5,1.2c3,0.8,5.9,2,8.8,3.1
		c2.9,1.1,5.7,2.3,8.6,3.5c5.6,2.5,11.3,5.1,16.7,7.9c11,5.6,21.5,12.1,31.3,19.4c-10.5-6.4-21.4-12.1-32.4-17.4
		c-5.5-2.6-11.1-5.1-16.8-7.4c-2.8-1.1-5.6-2.3-8.5-3.4s-5.7-2.1-8.6-2.9c-11.6-3.4-23.8-4.3-36-3.9c-6.1,0.2-12.2,0.8-18.2,1.8
		c-3,0.5-6,1-9,1.7c-1.5,0.3-3,0.7-4.5,1.1c-0.7,0.2-1.5,0.4-2.2,0.6s-1.4,0.5-2.1,0.9C264.5,93,265.2,92.6,265.9,92.3z"/>
	<path class="st1" d="M301.8,74.3c12.1-1.1,24.2,0.4,35.7,4.4c11.3,4.1,22.2,9.1,32.6,15c5.2,2.9,10.2,6.1,15.2,9.5
		c4.9,3.4,9.7,7,14.1,10.9c-4.9-3.4-9.9-6.6-15-9.7c-5.1-3.1-10.2-6-15.5-8.7s-10.6-5.3-16-7.7c-2.7-1.2-5.4-2.3-8.2-3.5
		c-1.4-0.6-2.8-1.1-4.1-1.6l-2.1-0.8l-1-0.4l-1-0.3c-2.8-1-5.6-1.8-8.4-2.5c-1.4-0.3-2.8-0.7-4.3-1l-4.3-0.7
		c-0.7-0.1-1.4-0.3-2.2-0.3l-2.2-0.2c-1.5-0.1-2.9-0.3-4.4-0.3l-4.4-0.1c-0.7-0.1-1.5,0-2.2,0l-2.2,0.1c-11.8,0.5-23.5,3-34.5,7.3
		C278.1,78.5,289.8,75.2,301.8,74.3z"/>
	<path class="st1" d="M283.4,69.1c5.4-1.3,10.9-2.2,16.4-2.9l4.2-0.4c1.4-0.1,2.8-0.2,4.2-0.2l2.1-0.1c0.7,0,1.4,0,2.1,0h4.2
		c5.6,0.1,11.2,0.7,16.8,1.8c2.8,0.6,5.5,1.3,8.2,2.2c1.4,0.4,2.7,0.9,4,1.4s2.6,0.9,3.9,1.5l3.8,1.7c1.3,0.6,2.5,1.2,3.8,1.8
		c2.5,1.2,5,2.6,7.4,3.9c4.8,2.8,9.5,5.9,13.9,9.3c1.1,0.9,2.2,1.7,3.2,2.6c1,0.9,2.1,1.8,3.1,2.8c2.1,1.9,4,3.9,5.8,6
		c-2-1.9-4.2-3.7-6.4-5.3c-1.1-0.9-2.2-1.7-3.3-2.5s-2.2-1.6-3.4-2.4c-4.6-3.1-9.3-5.9-14.2-8.4c-4.9-2.5-9.9-4.8-15-6.8
		c-1.3-0.5-2.5-1-3.8-1.4s-2.6-1-3.9-1.3l-3.9-1.1c-1.3-0.4-2.7-0.7-4-0.9c-5.3-1.1-10.8-1.8-16.2-1.9c-5.5-0.2-11-0.1-16.4,0.4
		c-5.5,0.5-10.9,1.1-16.4,2s-10.9,2-16.2,3.3C272.6,72,278,70.4,283.4,69.1z"/>
	<path class="st1" d="M284.7,62.2c4.5-1.2,9.1-2.1,13.8-2.7c9.4-1.2,18.9-1,28.2,0.7l3.5,0.8c1.2,0.2,2.3,0.5,3.4,0.9L337,63
		l1.7,0.6l1.6,0.7c4.4,1.7,8.7,3.4,13,5.2c4.3,1.8,8.6,3.8,12.7,5.8c4.2,2,8.3,4.4,12.1,7c-4.1-2.1-8.4-4-12.7-5.7s-8.6-3.4-13-5
		s-8.7-3.2-13.1-4.7c-2.2-0.8-4.4-1.4-6.5-2.1c-1.1-0.3-2.2-0.6-3.3-0.8l-3.3-0.8c-1.1-0.2-2.2-0.4-3.4-0.6s-2.2-0.4-3.4-0.5
		l-3.4-0.3l-1.7-0.2c-0.6-0.1-1.1-0.1-1.7-0.1l-3.4-0.1c-1.2-0.1-2.3,0-3.5,0c-2.3,0-4.6,0.2-6.9,0.3c-9.2,0.7-18.4,2.4-27.3,4.9
		C275.7,64.9,280.1,63.4,284.7,62.2z"/>
	<path class="st1" d="M295.6,54.1c3.6-0.9,7.2-1.5,10.9-1.8c7.4-0.7,14.8-0.3,22.1,1.2l2.7,0.6c0.9,0.2,1.8,0.5,2.7,0.7
		c1.8,0.5,3.5,1,5.3,1.6c3.5,1.2,6.9,2.5,10.3,4c6.7,3,13.1,6.6,19.1,10.8c-6.6-3.2-13.2-6-20-8.6C342,60,335.1,58,328,56.4
		c-0.9-0.2-1.8-0.4-2.6-0.5l-2.6-0.5c-1.8-0.2-3.5-0.5-5.3-0.6c-3.6-0.3-7.2-0.4-10.7-0.2c-3.6,0.1-7.2,0.4-10.8,0.9
		c-3.6,0.5-7.2,1.1-10.7,2C288.6,56,292,54.9,295.6,54.1z"/>
	<path class="st1" d="M302.6,44.4c3.3-0.8,6.6-1.2,10-1.2c3.4-0.1,6.7,0.3,10,1.1c3.3,0.7,6.4,1.9,9.4,3.6c-3.3-0.4-6.5-1-9.7-1.3
		c-0.8-0.1-1.6-0.2-2.4-0.2s-1.6-0.1-2.4-0.1c-1.6-0.1-3.2-0.1-4.8-0.1c-3.2,0-6.4,0.2-9.6,0.5s-6.4,0.7-9.8,1.2
		C296.1,46.3,299.3,45.2,302.6,44.4z"/>
	<path class="st1" d="M239.5,90.6c-1.7,0.2-3.3,0.4-5,0.5s-3.3,0.1-5,0.1s-3.4-0.2-5.1-0.3c1.5-1,3.1-1.7,4.9-2.1
		c1.7-0.4,3.4-0.6,5.1-0.7s3.4,0,5.2,0.2c1.7,0.2,3.5,0.6,5.1,1.2C243,90,241.3,90.4,239.5,90.6z"/>
	<path class="st1" d="M288.4,44.8c-2,1.4-4,2.9-6,4.4s-3.9,3-5.8,4.5s-3.8,3.2-5.6,4.8s-3.6,3.3-5.3,5.1c-3.4,3.5-6.5,7.4-9.1,11.6
		c1.6-4.8,4.1-9.2,7.3-13.1c3.2-3.9,6.8-7.5,10.7-10.7c3.9-3.2,8.1-6,12.4-8.6s8.9-4.7,13.6-6.4C296.5,39.2,292.4,41.9,288.4,44.8z"
		/>
	<path class="st1" d="M268.9,48.1c-3.2,2.8-6.2,5.8-9,9c-1.4,1.6-2.7,3.2-4,4.9c-1.3,1.7-2.5,3.4-3.5,5.2c-2.2,3.6-3.7,7.7-4.4,11.9
		c-0.4-4.4,0.4-8.9,2.3-12.9s4.4-7.7,7.4-11c1.5-1.6,3-3.2,4.7-4.7s3.3-2.9,5.1-4.2c3.5-2.6,7.3-4.9,11.2-6.7
		C275.3,42.5,272.1,45.3,268.9,48.1z"/>
	<path class="st1" d="M246.7,56c-1.7,2.7-3.2,5.5-4.5,8.4c-1.3,2.8-2.1,5.8-2.4,8.9c-0.1,1.5,0,3.1,0.4,4.6c0.4,1.6,1.1,3,1.9,4.4
		c-1.3-1.1-2.4-2.4-3.2-3.9c-0.8-1.6-1.3-3.3-1.4-5c-0.2-3.5,0.5-7,2-10.1c2.8-6.1,7.2-11.4,12.7-15.3
		C250.3,50.6,248.5,53.3,246.7,56z"/>
	<path class="st1" d="M229.2,68.2c0,2.5,0.5,5.1,1.4,7.4c1,2.3,2.5,4.4,4.4,6c2.1,1.7,4.3,3.3,6.7,4.6c-2.9-0.2-5.7-1.1-8.1-2.7
		c-2.6-1.6-4.6-4-5.7-6.8s-1.5-5.8-1-8.8c0.4-2.8,1.4-5.6,3.1-7.9C229.4,62.8,229.2,65.5,229.2,68.2z"/>
	<path class="st1" d="M218.6,77c0.8,1.2,1.7,2.4,2.6,3.5s1.9,2.1,3,3c1.2,0.9,2.5,1.8,3.8,2.5c-1.7,0.4-3.4,0.2-5-0.5
		s-3-1.7-4.1-3.1c-1.1-1.3-1.9-2.8-2.4-4.4c-0.6-1.6-0.7-3.2-0.6-4.9C216.9,74.5,217.7,75.8,218.6,77z"/>
	<path class="st1" d="M432.9,122.3c11,14.1,20.5,29.3,28.2,45.4l2.9,6l2.6,6.2l2.6,6.2l2.4,6.2c3.2,8.3,6.3,16.6,9.4,24.9
		c6.1,16.7,12.2,33.4,17.3,50.4c-3.1-8.3-6.3-16.6-9.6-24.8l-9.8-24.8l-9.8-24.7l-2.4-6.2l-2.6-6.1l-2.6-6.1l-2.9-6l-2.9-6l-3.1-5.8
		l-1.6-2.9c-0.5-1-1-1.9-1.6-2.9l-3.4-5.7l-1.7-2.9l-1.8-2.8l-3.6-5.6c-1.2-1.8-2.5-3.6-3.8-5.4c-1.3-1.8-2.5-3.7-3.9-5.4l-4-5.3
		c-1.3-1.8-2.8-3.4-4.2-5.2l-2.1-2.6l-2.2-2.5c-1.5-1.7-2.9-3.4-4.4-5c-5.9-6.6-12.3-12.8-19-18.6
		C409.5,95.3,421.8,108.3,432.9,122.3z"/>
	<path class="st1" d="M521.8,467.5c0.6-4.2,1-8.4,1.1-12.6c0.3-8.4,0.3-16.9,0.1-25.4s-0.4-16.9-0.6-25.4s-0.5-16.9-1.2-25.3
		c-2.7-33.7-8.3-67.1-15.3-100.1c-1.7-8.3-3.6-16.5-5.5-24.7l-1.5-6.2c-0.2-1-0.5-2-0.8-3l-0.9-3c-1.2-4.1-2.4-8.1-3.7-12.1
		c-5-16.1-10.9-31.9-17.6-47.4c-6.6-15.5-14.4-30.6-23.1-45c-4.4-7.2-9.2-14.2-14.3-20.9c-2.6-3.3-5.2-6.6-8-9.8
		c-1.4-1.6-2.8-3.1-4.3-4.7c-0.7-0.8-1.5-1.5-2.2-2.3l-1.1-1.1l-0.6-0.6l-0.3-0.3l-0.1-0.2l-0.1-0.1c-0.1-0.1-0.1-0.2-0.1-0.3
		l0.1,0.2c-4.6-4.6-9.6-8.9-14.6-13.1s-10.4-8-15.9-11.5c5.7,3.3,11.1,6.9,16.3,11c5.2,4,10.2,8.3,15,12.8l0.1,0.2
		c0-0.2,0-0.1,0-0.1l0,0l0.1,0.1l0.3,0.3l0.6,0.5l1.2,1.1c0.8,0.7,1.5,1.5,2.3,2.2c1.5,1.5,3,3,4.4,4.6c2.9,3.1,5.6,6.4,8.2,9.7
		c5.3,6.7,10.2,13.6,14.7,20.8c9.1,14.4,17,29.4,23.8,45s12.8,31.5,17.9,47.6c1.3,4,2.5,8.1,3.7,12.2l0.9,3.1
		c0.3,1.1,0.5,2.1,0.8,3.1l1.5,6.2c2,8.2,3.7,16.5,5.5,24.8c3.4,16.6,6.5,33.2,9,50c1.3,8.4,2.5,16.8,3.4,25.2s1.6,16.9,2.2,25.4
		c0.5,8.5,0.7,17,0.8,25.4c0.1,8.5,0.2,16.9,0.2,25.4s-0.2,16.9-0.7,25.4c-0.3,4.2-0.8,8.5-1.5,12.6c-0.8,4.2-1.9,8.3-3.4,12.2
		C520.2,475.9,521.2,471.7,521.8,467.5z"/>
	<path class="st1" d="M507.7,418.4c0.4,14.8,0,29.7-2.5,44.5c-2.7,14.8-7.8,29-15.2,42c-3.7,6.5-7.9,12.7-12.6,18.5
		c-4.7,5.8-10,11.1-15.9,15.7c5.4-5,10.4-10.5,14.7-16.5c8.7-11.9,15.6-25,20.4-38.9c2.4-6.9,4.3-14,5.6-21.2
		c0.7-3.6,1.2-7.2,1.5-10.9l0.5-5.5l0.4-5.5c0.5-7.4,0.7-14.7,0.7-22.1s-0.2-14.8-0.5-22.2c-0.3-7.4-0.8-14.8-1.5-22.2
		C505.9,388.7,507.3,403.5,507.7,418.4z"/>
	<path class="st1" d="M501.4,423.3c0.3,4.3,0.3,8.7,0.3,13.1c-0.1,8.7-0.9,17.5-2.5,26.1c-1.5,8.7-4.1,17.1-7.6,25.2
		c-1.8,4-4,7.9-6.5,11.5l-3.8,5.3l-3.9,5.3c-5.3,7-11,13.6-17.1,19.9c-6.1,6.3-12.7,12-19.2,17.8s-13.1,11.3-18,18.4
		c-5,7.1-8.9,14.9-11.4,23.2c1-4.3,2.3-8.4,4.1-12.4c1.7-4,3.8-7.9,6.1-11.6c2.4-3.7,5.2-7.1,8.2-10.3c3-3.1,6.3-6.1,9.4-9
		s6.4-5.9,9.5-8.8c3.2-3,6.2-6,9.2-9.2c6-6.2,11.6-12.8,16.8-19.7l3.9-5.2l3.8-5.3c2.4-3.5,4.5-7.2,6.3-11.1
		c3.6-7.8,6.2-16,7.9-24.4c1.7-8.5,2.8-17,3.3-25.7c0.6-8.7,0.6-17.3,0-26C500.8,414.7,501.1,419,501.4,423.3z"/>
	<path class="st1" d="M493.9,458.7c-0.6,5.3-1.8,10.6-3.5,15.6c-3.5,10.2-9,19.6-16.1,27.6c-7,7.9-14.2,15.7-21.6,23.2
		c-3.7,3.8-7.5,7.5-11.3,11.1s-7.8,7.2-11.5,10.9c3.3-4.2,6.9-8,10.5-11.9l10.7-11.7c3.5-3.9,7.1-7.8,10.6-11.8
		c3.5-4,7-7.8,10.5-11.8l2.5-3c0.9-1,1.7-2,2.4-3.1c1.5-2.1,3-4.2,4.3-6.5c2.7-4.4,5.1-9.1,6.9-14l1.3-3.7l1.1-3.7
		c0.7-2.5,1.3-5.1,1.8-7.6c1-5.2,1.4-10.4,1.2-15.7C494.5,448,494.6,453.4,493.9,458.7z"/>
	<path class="st1" d="M465.7,623.1c-2,9.7-4.2,19.3-6.3,29l-3.3,14.5c-1.1,4.8-2.3,9.6-3.3,14.5c-2.1,9.7-3.6,19.4-5.2,29.2
		c-1.6,9.8-3.1,19.6-4.9,29.4c-1.8,9.8-3.9,19.5-6.6,29.1c-2.7,9.6-6.1,18.9-10.2,28c7.2-18.5,11.3-37.9,14.5-57.5
		c1.5-9.8,2.9-19.6,4.4-29.4s3.1-19.6,5.1-29.4c4.5-19.4,9.1-38.6,13.6-57.9c4.5-19.3,9.2-38.6,14.1-57.8
		C473.8,584.2,469.9,603.7,465.7,623.1z"/>
	<path class="st1" d="M424.1,616.6c-1.7,3.6-3.5,7.1-5,10.8l-1.3,2.8l-1.1,2.8c-0.7,1.8-1.4,3.7-2,5.6l-0.5,1.4l-0.4,1.4l-0.9,2.8
		c-0.6,1.9-1,3.8-1.5,5.7c-0.9,3.9-1.7,7.8-2.4,11.7s-1.4,7.8-2,11.8c-0.6,3.9-1,7.9-1.1,11.9c-0.5-4-0.7-8-0.4-12
		c0.2-4,0.6-8,1.2-12s1.3-7.9,2-11.9c0.4-2,0.9-3.9,1.4-5.9l0.8-2.9l0.4-1.5l0.5-1.4c2.7-7.6,6-15,10.1-22c4-7,8.5-13.6,13.6-19.8
		C431.5,602.6,427.7,609.5,424.1,616.6z"/>
	<path class="st1" d="M417.1,607.9c-1.1,1.2-2.1,2.5-3,3.8c-1.8,2.7-3.4,5.5-4.7,8.5c-2.6,5.9-4.5,12.1-5.8,18.5
		c-1.3,6.3-2.3,12.8-3,19.2l-2.5,19.4c-0.9,6.5-1.8,13-2.8,19.4c-1.1,6.5-2.2,12.9-3.6,19.3c-2.7,12.8-6.2,25.6-11.7,37.4
		c2.2-6.1,4-12.4,5.5-18.8c1.5-6.3,2.8-12.7,3.9-19.1c2.2-12.8,4-25.7,5.7-38.7l2.6-19.4c0.8-6.5,2-13,3.5-19.4
		c1.6-6.4,3.8-12.6,6.8-18.5c1.5-2.9,3.3-5.7,5.3-8.3s4.5-4.9,7.4-6.5C419.4,605.6,418.2,606.7,417.1,607.9z"/>
	<path class="st1" d="M460.1,598.3l-9.7,27.2l-9.7,27.2c-3.2,9.1-6.4,18.2-9.5,27.2c-3.1,9.1-5.5,18.3-7.7,27.7
		c-2.2,9.3-4.2,18.8-6.7,28.1c-2.4,9.4-5.5,18.5-9.2,27.5c-3.8,8.9-8.4,17.4-13.5,25.5c4.7-8.4,8.7-17.1,12.2-26.1
		c3.4-9,6.2-18.1,8.3-27.5c2.2-9.3,4.1-18.7,6.2-28.2c2.1-9.4,4.6-18.8,7.6-28c6.2-18.3,12.9-36.3,19.8-54.3
		c6.9-18,14.1-35.8,21.5-53.6C466.5,580.2,463.2,589.2,460.1,598.3z"/>
	<path class="st1" d="M414.8,705.4c-2.1,7.4-4.3,14.7-6.7,22.1c-4.7,14.6-9.8,29.2-15.5,43.4c-2.9,7.2-6.1,14.2-9.2,21.2
		s-6.1,14-9,21.1s-5.6,14.2-9,21.2c-1.7,3.4-3.6,6.8-5.8,10c-1,1.6-2.1,3.2-3.2,4.8s-2.3,3.1-3.4,4.7c4-6.5,8.1-13.1,11-20.1
		c1.5-3.5,2.8-7.1,4.2-10.7c1.3-3.6,2.7-7.2,4-10.8c2.6-7.2,5.5-14.3,8.6-21.4c3.1-7.1,6.1-14.1,9-21.1s5.6-14.3,8.3-21.4
		c2.7-7.2,5.2-14.4,7.8-21.6c5.1-14.5,10-29,14.9-43.6C419,690.6,416.9,698,414.8,705.4z"/>
	<path class="st1" d="M376.4,704.9c-2,5.8-3.8,11.7-5.3,17.6s-3,11.9-4.1,17.9c-1.3,6-2.1,12.1-3,18.1v-0.2c0.2,3,0.3,5.9,0.4,8.8
		s0.2,5.8,0.3,8.8c0.2,5.9,0.3,11.8,0.3,17.7c-0.8-5.8-1.4-11.7-2-17.6c-0.3-2.9-0.6-5.9-0.8-8.8c-0.3-2.9-0.5-5.9-0.8-8.8v-0.2
		l0.5-4.6c0.2-1.5,0.3-3.1,0.6-4.6c0.5-3.1,0.9-6.2,1.6-9.2c1.2-6.1,2.7-12.1,4.5-18.1l1.4-4.5c0.5-1.5,1-2.9,1.5-4.4
		c1-2.9,2.1-5.8,3.3-8.7c2.3-5.7,5.1-11.3,8.3-16.6C380.5,693.3,378.4,699.1,376.4,704.9z"/>
	<path class="st1" d="M370.7,872c-4.5,5.4-9.3,10.5-14.3,15.3c-5.1,4.8-10.5,9.3-16.3,13.3s-11.9,7.5-18.2,10.5
		c-6.3,3.1-12.7,5.8-19.3,8.2c-6.5,2.4-13.2,4.5-20,6.1c-3.4,0.8-6.8,1.4-10.3,2c-1.7,0.3-3.4,0.5-5.2,0.8l-2.6,0.3l-1.3,0.2
		l-0.6,0.1c-0.2,0.1-0.5,0.1-0.6,0.2c0.1-0.2,0.4-0.2,0.6-0.3l0.6-0.2l1.3-0.3l2.5-0.5c1.7-0.3,3.4-0.7,5.1-1.1
		c3.3-0.8,6.7-1.7,10-2.7c6.7-1.9,13.2-4.2,19.6-6.8s12.7-5.5,18.8-8.6c6.2-3,12.1-6.5,17.8-10.4c11.2-8,21.5-17.3,30.5-27.7
		c4.6-5.2,9-10.5,13.2-16s8.2-11.2,11.9-17C387.5,849.7,379.6,861.3,370.7,872z"/>
	<path class="st1" d="M548.7,769c3.6,14.6,7.3,29.2,11.1,43.8c3.8,14.5,7.8,29.1,12.8,43.2c2.5,7,5.1,14.1,8.1,21
		c1.4,3.5,3,6.9,4.6,10.3c0.8,1.7,1.7,3.3,2.7,5c0.5,0.8,1,1.6,1.5,2.4c0.3,0.4,0.6,0.8,0.9,1.1c0.1,0.2,0.3,0.4,0.5,0.5l0.3,0.2
		c0.1,0.1,0.2,0.2,0.3,0.1h-0.1l-0.2-0.1l-0.3-0.2c-0.2-0.2-0.3-0.3-0.5-0.5c-0.3-0.4-0.6-0.7-0.9-1.1c-0.6-0.7-1.1-1.5-1.6-2.3
		c-1-1.6-2-3.2-2.9-4.9c-1.8-3.3-3.5-6.7-5.1-10.1c-3.1-6.9-5.9-13.9-8.6-20.9s-5-14.2-7.2-21.5s-4.1-14.5-6.1-21.8
		c-3.8-14.6-7.3-29.2-10.7-43.9l-4.8-22.1c-1.6-7.4-3-14.8-4.6-22.1C541.6,739.6,545,754.3,548.7,769z"/>
	<path class="st1" d="M529.6,502.6l-1.5,26.5c-1,17.7-2.1,35.3-2.8,53c-0.4,8.8-0.7,17.6-0.5,26.5c0.3,8.8,0.9,17.6,1.7,26.4
		s1.7,17.6,2.7,26.4s2.1,17.6,3.2,26.3c-1.6-8.7-3-17.4-4.2-26.2s-2.2-17.6-3.2-26.4s-1.6-17.6-2-26.5s0-17.8,0.3-26.6
		c0.9-17.7,2-35.4,3.3-53l2.1-26.5c0.8-8.8,1.5-17.6,2.4-26.4L529.6,502.6z"/>
	<path class="st1" d="M569.5,884.4l-2.8-7.3l-2.7-7.3c-3.5-9.8-6.7-19.7-9.7-29.7c-1.5-5-2.8-10-4.2-15c-0.7-2.5-1.3-5-1.9-7.6
		l-0.9-3.8l-0.9-3.8c-2.4-10.1-4.2-20.4-5.7-30.7c1.2,5.1,2.2,10.2,3.5,15.2l1.8,7.6l1.9,7.5c2.6,10,5.4,20,8.3,30
		c2.9,10,6,19.9,9.2,29.8c3.2,9.9,6.6,19.7,9.9,29.6C573.4,894.1,571.4,889.3,569.5,884.4z"/>
	<path class="st1" d="M542.2,489.3l-3.1,37.2c-2,24.8-4,49.6-5.3,74.5c-0.4,6.2-0.7,12.4-0.9,18.6s-0.4,12.4-0.2,18.6
		c0,1.5,0.1,3.1,0.2,4.6s0.4,3,0.6,4.5c0.5,3.1,1,6.2,1.4,9.2c0.9,6.2,1.6,12.4,2.4,18.5c1.5,12.3,3,24.7,4.9,37
		c1.7,12.3,4.1,24.5,7.2,36.6c-3.4-12-6.2-24.1-8.2-36.5c-2.1-12.3-3.7-24.7-5.4-37c-0.8-6.2-1.7-12.3-2.5-18.5
		c-0.5-3.1-0.9-6.2-1.5-9.2c-0.3-1.5-0.5-3.1-0.7-4.7s-0.2-3.1-0.3-4.7c-0.2-6.3,0-12.5,0.2-18.7s0.5-12.4,0.8-18.7
		c0.7-12.4,1.6-24.9,2.6-37.3s2-24.8,3.2-37.2s2.3-24.8,3.6-37.2s2.6-24.8,4.1-37.1L542.2,489.3z"/>
	<path class="st1" d="M554.3,361.7c0,1.1,0,2.2,0,3.3c0,2.2-0.1,4.4-0.2,6.7c-0.2,4.4-0.5,8.9-0.8,13.3c-0.7,8.9-1.4,17.7-2.4,26.5
		c-0.9,8.8-1.9,17.6-3,26.5c-1.1,8.8-2.3,17.6-3.7,26.4c0.6-8.9,1.3-17.7,2.1-26.5s1.7-17.7,2.6-26.5l2.8-26.5l1.4-13.2
		c0.2-2.2,0.5-4.4,0.7-6.6c0.1-1.1,0.2-2.2,0.2-3.3c0.1-1.1,0.1-2.2,0-3.3C554.2,359.5,554.3,360.6,554.3,361.7z"/>
	<path class="st1" d="M363.1,53.2c22.2,5.3,43.3,14.1,62.7,26.2c4.8,3.1,9.5,6.4,13.9,9.9c4.4,3.6,8.7,7.4,12.6,11.5
		c3.9,4.1,7.5,8.6,10.7,13.3c3.1,4.7,5.8,9.8,8,15c-2.6-5-5.5-9.9-8.9-14.4s-7.1-8.8-11.1-12.8c-4-3.9-8.3-7.7-12.7-11.1
		c-4.4-3.5-9.1-6.7-13.8-9.7s-9.6-5.8-14.6-8.5s-10.1-5.1-15.2-7.4c-5.2-2.3-10.4-4.5-15.7-6.5C373.8,56.7,368.4,54.9,363.1,53.2
		L363.1,53.2z"/>
	<path class="st1" d="M440.2,82.5c0.2,0.1,0.5,0.2,0.7,0.4c0.5,0.3,0.9,0.5,1.4,0.8c0.9,0.6,1.8,1.2,2.7,1.8
		c1.8,1.3,3.5,2.6,5.2,3.9c3.4,2.7,6.6,5.6,9.8,8.6c6.3,6,12.2,12.4,17.5,19.3c5.4,6.9,10.2,14.1,14.5,21.7
		c2.1,3.8,4.1,7.7,5.9,11.7s3.5,8,5.2,12c6.8,16,13.4,32.1,19.2,48.5c2.9,8.2,5.5,16.5,7.9,24.9c2.4,8.4,4.3,16.9,6.1,25.4
		s3.6,17,5.1,25.6s2.6,17.2,3.2,25.9c0.6,8.7,0.8,17.4,0.7,26.1s-0.4,17.4-0.8,26.1c-0.9,17.4-2.2,34.7-3.9,52
		c-0.9,8.6-1.9,17.3-3,25.9l-3.3,25.8l2.8-25.9c1-8.6,1.8-17.2,2.5-25.9c1.5-17.3,2.7-34.6,3.3-51.9s1-34.7-0.2-52
		c-0.6-8.6-1.7-17.3-3.3-25.8c-1.5-8.5-3.4-17-5.2-25.5c-1.7-8.5-3.7-16.9-6-25.3s-4.9-16.6-7.8-24.8c-5.7-16.4-12.3-32.5-18.9-48.5
		c-1.6-4-3.3-8-5-12s-3.6-7.8-5.7-11.6c-4.2-7.6-8.9-14.9-14.2-21.7c-5.2-6.9-11-13.4-17.1-19.5c-3.1-3-6.3-6-9.6-8.8
		c-1.7-1.3-3.3-2.7-5.1-4c-0.9-0.6-1.8-1.3-2.7-1.9c-0.5-0.3-0.9-0.6-1.4-0.9C440.7,82.8,440.4,82.6,440.2,82.5
		c-0.3-0.1-0.5-0.2-0.8-0.2C439.7,82.3,440,82.3,440.2,82.5z"/>
	<path class="st1" d="M487.7,117.3c6.5,8.5,12.5,17.3,18,26.4c10.8,18.4,19.7,37.8,26.4,58c0.5,1.2,0.8,2.5,1.2,3.8l1.1,3.8l2.3,7.7
		c1.4,5.1,2.7,10.3,4,15.4c2.5,10.3,4.9,20.6,7,31.1s3.9,20.9,5.2,31.5c0.3,2.6,0.7,5.2,0.8,7.9c0.2,2.7,0.5,5.3,0.6,8
		c0.4,5.3,0.3,10.6-0.1,15.9c0.2-2.6,0.2-5.3,0.1-8c-0.1-2.6-0.3-5.3-0.5-7.9s-0.4-5.3-0.8-7.9c-0.4-2.6-0.7-5.3-1.1-7.9
		c-0.4-2.6-0.8-5.2-1.2-7.9l-1.3-7.8c-1-5.2-2.1-10.4-3.1-15.6c-1.1-5.2-2.3-10.4-3.5-15.5c-1.2-5.2-2.4-10.3-3.8-15.4
		s-2.7-10.3-4.1-15.4l-2.3-7.6l-1.1-3.8c-0.4-1.3-0.7-2.5-1.2-3.8c-6.6-20.1-15.3-39.5-25.8-57.9c-10.6-18.4-23.2-35.5-37.6-51.1
		C474.2,100.9,481.2,108.9,487.7,117.3z"/>
	<path class="st1" d="M566,415c2.2,7.6,4.4,15.3,6.5,23s4.1,15.4,6,23.2s3.8,15.5,5.3,23.4c1.5,7.8,3.1,15.6,4.5,23.5
		c1.5,7.8,3,15.7,4.3,23.5l4,23.6c1.2,7.9,2.6,15.7,3.7,23.6l-4.7-23.5l-4.6-23.5c-3.1-15.6-6.2-31.3-9.3-46.9s-6.9-31.1-10.8-46.5
		s-8.1-30.8-12-46.3L566,415z"/>
	<path class="st1" d="M573.2,476.6c1.8,9.6,3.4,19.1,5.1,28.7l4.8,28.7l2.4,14.4c0.8,4.8,1.5,9.6,2.5,14.3
		c-2.6-9.4-4.6-18.9-6.5-28.4s-3.6-19.1-5.3-28.7c-1.7-9.6-3.2-19.2-4.6-28.8c-1.5-9.6-2.8-19.2-4-28.9
		C569.6,457.5,571.4,467,573.2,476.6z"/>
	<path class="st1" d="M492.8,157.5c1.3,2.5,2.6,5.1,3.8,7.7c1.2,2.6,2.4,5.2,3.5,7.8c4.4,10.6,8.3,21.3,11.6,32.3
		c3.4,10.9,6.1,22.1,8.5,33.3s4.7,22.4,6.7,33.6s3.8,22.6,5.3,33.9s2.8,22.7,3.6,34.1c0.4,5.7,0.8,11.4,0.8,17.1s-0.2,11.4-0.5,17.1
		s-0.7,11.4-1.1,17.1l-0.6,8.5l-0.2,4.3c-0.1,0.7-0.1,1.4-0.1,2.1s0,1.4,0.1,2.1c-0.5-22.8,2.7-45.7-0.1-68.4
		c-2-22.7-5.3-45.3-9.4-67.8c-2-11.2-4.1-22.5-6.5-33.6s-5-22.2-8.2-33.2c-3.1-11-6.8-21.8-11-32.4c-1-2.7-2.1-5.3-3.3-7.9
		s-2.4-5.2-3.6-7.8s-2.5-5.1-3.9-7.6s-2.8-5-4.4-7.4C487.3,147.4,490.3,152.4,492.8,157.5z"/>
	<path class="st1" d="M476.5,147.8c3.9,6.1,7.6,12.4,10.9,18.9c3.2,6.5,6.1,13.2,8.8,20c2.5,6.8,4.8,13.7,7,20.6
		c8.8,27.7,15.4,56.1,19.7,84.9c1.1,7.2,1.9,14.4,2.6,21.7c0.7,7.2,1.2,14.5,1.6,21.7c0.9,14.5,1.5,29,1.9,43.5
		c0.7,29,1.1,58.1-0.9,87.1c0.6-14.5,0.6-29,0.5-43.5c-0.2-14.5-0.5-29-1.1-43.5s-1.1-29-2.1-43.5c-0.5-7.2-1-14.5-1.7-21.7
		s-1.6-14.4-2.6-21.6c-2-14.4-4.8-28.6-8-42.7s-7-28.1-11.2-42c-2.1-6.9-4.2-13.9-6.8-20.7s-5.4-13.5-8.5-20s-6.6-12.9-10.4-19.1
		c-1.9-3.1-3.9-6.1-6-9.1s-4.3-5.9-6.6-8.6C468.2,135.8,472.6,141.6,476.5,147.8z"/>
	<path class="st1" d="M500.2,228.3l-3.6-14.4c-1.2-4.8-2.3-9.6-3.6-14.3c-2.6-9.5-5.9-18.8-9.8-27.8l-1.5-3.4l-1.6-3.3
		c-1-2.2-2.2-4.4-3.3-6.6c-1.1-2.2-2.2-4.4-3.5-6.5c-1.2-2.1-2.4-4.3-3.7-6.4c-5-8.5-10.5-16.6-16.4-24.6c-1.5-2-2.9-4-4.5-5.9
		s-3-3.9-4.6-5.8c-3.1-3.8-6.4-7.5-9.9-11c-6.8-7.1-14.3-13.4-22.4-18.9l0,0c-7.6-3.8-15.2-7.5-22.8-11.3c7.8,3.5,15.5,7,23.2,10.5
		l0,0c4.2,2.6,8.3,5.5,12.1,8.7s7.5,6.5,11,10s6.9,7.1,10.1,10.9c3.2,3.8,6.2,7.6,9.2,11.6c11.8,15.8,22.4,32.8,30.2,51.1
		c3.9,9.1,7.2,18.5,9.7,28.1s4.6,19.2,6.9,28.8c4.5,19.2,8.9,38.5,13.2,57.8C509.8,266.6,504.9,247.5,500.2,228.3z"/>
	<path class="st1" d="M416.4,51.4c-2.9-1.4-5.9-2.7-8.9-3.7s-6-2.2-9.1-3c-1.5-0.5-3.1-0.9-4.6-1.2s-3.1-0.7-4.7-0.9
		c-6.3-1.1-12.7-1.9-19.1-2.2c-6.4-0.4-12.9-0.6-19.3-0.6c6.4-0.8,12.9-1.1,19.4-0.9c3.2,0,6.5,0.2,9.7,0.5s6.5,0.7,9.7,1.3
		c6.4,1.2,12.7,3.1,18.7,5.7c6,2.5,11.7,5.7,17,9.5C422.2,54.2,419.3,52.8,416.4,51.4z"/>
	<path class="st1" d="M400.4,53.8c-4.7-1.1-9.4-2.2-14.1-3.1c-4.7-0.9-9.5-1.6-14.2-2.2c-2.4-0.3-4.8-0.7-7.2-1l-3.6-0.6l-1.8-0.3
		l-0.9-0.2l-0.2-0.1h-0.1c0,0,0,0.1,0,0s0-0.1,0-0.1h0.1h0.5h-0.5h-0.1c0,0.1,0,0,0,0l0,0l0,0h0.2h0.9l1.8,0.1l3.6,0.2
		c2.4,0.1,4.8,0.2,7.2,0.4c1.2,0.1,2.4,0.2,3.6,0.3c1.2,0.1,2.4,0.2,3.6,0.4c2.4,0.3,4.8,0.7,7.2,1.1c4.8,0.9,9.5,2.1,14.2,3.6
		c4.6,1.4,9.2,3.1,13.6,5.2C409.8,56.2,405.1,54.9,400.4,53.8z"/>
	<path class="st1" d="M419.4,71.6c-3.6-2.4-7.3-4.7-11.1-6.8l-2.8-1.6c-1-0.5-2-0.9-2.9-1.5c-0.9-0.5-1.9-1-2.9-1.4s-2-0.9-3-1.3
		c-4-1.7-8.1-3.2-12.3-4.4c4.4,0.5,8.7,1.4,12.8,2.9s8.2,3.3,12,5.5c3.8,2.2,7.5,4.6,11,7.3c3.5,2.6,6.8,5.6,9.8,8.8
		C426.5,76.5,423,74,419.4,71.6z"/>
	<path class="st1" d="M561.1,514.4l1.8,17.7c0.5,5.9,1.1,11.8,1.8,17.7c0.3,2.9,0.7,5.9,1.1,8.8c0.2,1.5,0.4,2.9,0.7,4.4
		c0.2,1.5,0.7,2.9,1.2,4.2c-0.8-1.3-1.4-2.7-1.8-4.1c-0.5-1.4-0.8-2.9-1.2-4.3c-0.7-2.9-1.2-5.8-1.7-8.8c-1-5.9-1.7-11.8-2.2-17.7
		s-1-11.8-1.3-17.8c-0.3-5.9-0.5-11.9-0.5-17.8C559.8,502.6,560.5,508.5,561.1,514.4z"/>
	<path class="st1" d="M554.7,529.1c-0.3,3.4-0.6,6.8-0.8,10.1c-0.1,1.7-0.2,3.4-0.3,5.1c-0.1,1.6-0.1,3.3-0.1,5s0.1,3.3,0.3,5
		c0.1,1.7,0.7,3.3,1.6,4.7c-1.3-1.2-2.1-2.8-2.5-4.5c-0.5-1.7-0.8-3.4-0.9-5.1c-0.3-3.4-0.3-6.9-0.1-10.3c0.2-3.4,0.6-6.8,1.2-10.2
		c0.6-3.4,1.3-6.7,2.3-10C555.2,522.3,554.9,525.8,554.7,529.1z"/>
	<path class="st1" d="M167.4,215.1c-1.8,1.8-3.4,3.6-5,5.5l-2.3,2.9c-0.7,1-1.4,2.1-2.1,3.1s-1.3,2.1-1.9,3.1
		c-0.6,1.1-1.3,2.1-1.8,3.2l-1.6,3.3c-0.5,1.1-0.9,2.3-1.4,3.4c-1,2.3-1.6,4.7-2.4,7.1c-0.5,1.2-0.6,2.4-1,3.6
		c-0.3,1.2-0.6,2.4-0.9,3.7c0.1-1.3,0.2-2.5,0.4-3.8l0.2-1.9c0-0.3,0.1-0.6,0.1-0.9l0.2-0.9c1.4-7.5,4.3-14.7,8.5-21.1
		c2.8-4.3,6.2-8.2,10-11.5c3.8-3.4,8.1-6.2,12.7-8.2C174.9,208.4,171,211.5,167.4,215.1z"/>
	<path class="st1" d="M166.4,223.8c-1.8,2.6-3.5,5.2-5.1,8c-3.1,5.5-5.7,11.3-7.9,17.3l-1.6,4.5c-0.5,1.5-0.9,3-1.4,4.5
		c-1,3-1.6,6.1-2.5,9.2c-0.4,1.5-0.7,3.1-1,4.7l-1,4.7c-0.6,3.1-1,6.3-1.6,9.4c0.2-3.2,0.4-6.4,0.7-9.6c0.4-3.2,0.8-6.4,1.4-9.5
		s1.2-6.3,2.2-9.4c0.4-1.5,0.8-3.1,1.3-4.6l1.6-4.6c2.2-6.1,5-11.9,8.4-17.4c1.7-2.7,3.6-5.4,5.6-7.8c2-2.5,4.3-4.8,6.8-6.8
		C170.2,218.7,168.2,221.2,166.4,223.8z"/>
	<path class="st1" d="M161.3,249.3c-0.7,1.5-1.3,3-1.9,4.6l-0.9,2.3l-0.8,2.3c-2.2,6.2-4,12.6-5.5,19c-0.6,3.2-1.4,6.4-1.9,9.7
		c-0.3,1.6-0.6,3.2-0.8,4.9l-0.7,4.9l-0.3,2.5l-0.2,2.5l-0.5,4.9c-0.3,3.3-0.4,6.6-0.7,9.9c-0.1-1.7-0.2-3.3-0.2-5s-0.1-3.3-0.1-5
		l0.2-5l0.1-2.5l0.2-2.5l0.5-5c0.2-1.6,0.5-3.3,0.7-4.9s0.5-3.3,0.8-4.9l1-4.9c1.5-6.5,3.5-12.8,6-19c2.4-6.2,5.6-12.1,9.4-17.5
		C164,243.3,162.6,246.3,161.3,249.3z"/>
	<path class="st1" d="M158.4,283c-1,5.2-1.7,10.5-2.3,15.7l-0.4,4c-0.1,1.4-0.2,2.7-0.3,4c-0.3,2.6-0.4,5.3-0.6,7.9
		c-0.1,1.3-0.1,2.7-0.2,4l-0.2,4c-0.1,2.7-0.2,5.3-0.4,8c-0.3-2.7-0.5-5.4-0.6-8s-0.2-5.3-0.1-8c0.1-5.3,0.4-10.7,1-16
		s1.5-10.6,2.8-15.8c0.6-2.6,1.4-5.2,2.2-7.7c0.8-2.6,1.8-5,3-7.5C160.6,272.7,159.4,277.8,158.4,283z"/>
	<path class="st1" d="M146.2,362.9c-0.3,4.2-0.8,8.3-1.2,12.5c-0.9,8.3-2,16.6-3.4,24.8c-0.6,4.1-1.3,8.2-2.1,12.3l-1.2,6.1
		l-1.2,6.1c-0.8,4.1-1.8,8.2-2.6,12.2l-1.3,6.1c-0.2,1-0.4,2-0.6,3l-0.5,3.1c-3,16.4-4.7,32.9-5.1,49.5c-0.7,16.7,0.2,33.3,0.3,50
		l-1.5-25c-0.4-8.3-0.5-16.7-0.4-25c0.2-16.7,1.8-33.4,4.7-49.9l0.6-3.1c0.2-1.1,0.4-2.1,0.7-3.1l1.3-6.1c0.9-4.1,1.9-8.1,2.7-12.2
		c1.8-8.1,3.2-16.3,4.8-24.5c1.4-8.2,2.7-16.4,3.9-24.7c1.2-8.2,2.2-16.5,3-24.8C146.9,354.6,146.6,358.7,146.2,362.9z"/>
	<path class="st1" d="M198.9,530.6c3.9,8.9,7.5,17.9,11,27c1.7,4.5,3.4,9.1,5,13.7l2.3,6.9c0.8,2.3,1.5,4.6,2.2,7
		c3,9.3,5.3,18.7,6.9,28.3c-0.6-2.3-1.2-4.7-1.8-7l-2.1-7c-1.5-4.6-2.9-9.2-4.5-13.8c-3.2-9.2-6.5-18.2-9.9-27.3s-7-18.1-10.5-27.1
		l-10.7-27.1C191.1,512.8,195,521.6,198.9,530.6z"/>
	<path class="st1" d="M158.8,358.1c0,4.6-0.2,9.2-0.6,13.9c-0.7,9.2-2.1,18.4-3.9,27.5c-1.9,9.1-4.5,18-7,26.9s-4.8,17.8-6.8,26.8
		s-3.6,18.1-4.5,27.2c-0.9,9.1-1.1,18.4-0.5,27.5c0.3,4.6,0.7,9.2,1.4,13.7s1.4,9.1,2,13.7s1.1,9.2,1.5,13.8s0.6,9.3,0.8,13.9
		c0.6,18.5,3.2,36.8,6,55l4.2,27.4c1.3,9.1,2.6,18.4,3.1,27.6s0.4,18.6-1.7,27.8c-1.2,4.5-2.9,8.9-5,13s-4.2,8.2-6.5,12.3
		c-4.5,8.1-9.2,16-14,23.9s-9.7,15.7-14.8,23.4c9.7-15.7,19.3-31.5,28-47.8c2.2-4.1,4.3-8.1,6.3-12.3c2.1-4.1,3.7-8.4,4.8-12.8
		c1.9-9,2-18.2,1.3-27.4c-1.4-18.4-4.8-36.6-7.6-54.8s-5.5-36.6-6.2-55.2c-0.2-4.6-0.4-9.2-0.8-13.8s-0.9-9.2-1.5-13.7
		s-1.3-9.1-1.9-13.7c-0.6-4.6-1-9.2-1.3-13.8c-0.6-9.3-0.4-18.6,0.6-27.8s2.6-18.4,4.8-27.4c2.1-9,4.5-18,7.1-26.8
		s5.2-17.7,7.2-26.7s3.5-18.1,4.4-27.3c0.5-4.6,0.7-9.2,0.8-13.8c0.1-4.6,0-9.2-0.5-13.8C158.6,348.9,158.8,353.5,158.8,358.1z"/>
	<path class="st1" d="M133.4,585.4c0.8,7,2,14,3.5,20.9s3,13.8,4.5,20.7s3,13.8,4.2,20.8s2,14.1,2.3,21.2
		c0.4,10.7-1.1,21.5-4.6,31.7l-1.8,5l-2,5c-11,26.3-25.2,50.8-37.5,76.3l-2.2,4.8l-2.1,4.9l-3.9,9.9l-7.7,19.8
		c-5.1,13.2-10.1,26.4-15,39.7c2.2-6.7,4.5-13.4,6.9-20.1l7.2-20c2.4-6.6,4.9-13.3,7.4-19.9l3.8-9.9l2-4.9l2.2-4.9
		c6-12.9,12.6-25.4,19-38c3.2-6.3,6.4-12.6,9.4-19c3.1-6.4,6-12.8,8.6-19.3l2-4.9l1.8-5c3.4-10,5-20.5,4.6-31
		c-0.3-14.1-3.3-28-6.1-41.8c-1.4-6.9-2.9-13.9-4.2-20.8s-2.5-13.9-3.2-21s-1.1-14.1-1.1-21.2c-0.1-7.1,0.4-14.2,1.3-21.2
		C131.4,557.2,131.6,571.3,133.4,585.4z"/>
	<path class="st1" d="M237.9,534c0.1,4.8-0.4,9.6-1.5,14.2c-0.3,1.2-0.6,2.3-1.1,3.5l-0.6,1.7c-0.3,0.5-0.6,1.1-0.9,1.6l-0.8,1.6
		l-1,1.5c-0.7,1-1.4,1.9-2.2,2.8c-3,3.7-6,7.3-9.2,10.8c2.5-4,5.2-7.9,7.9-11.7c0.7-1,1.4-1.9,2-2.9l0.9-1.4l0.7-1.5
		c0.2-0.5,0.5-1,0.7-1.5l0.6-1.6c0.4-1.1,0.7-2.2,1-3.3s0.5-2.2,0.8-3.4s0.4-2.3,0.5-3.4s0.2-2.3,0.4-3.5l0.2-3.5
		c0.2-4.7,0.1-9.4-0.1-14.1C237.2,524.5,237.8,529.3,237.9,534z"/>
	<path class="st1" d="M229.5,517.9c0.2,5.3-0.2,10.7-1.2,15.9c-1.1,5.2-2.5,10.3-4.1,15.3c-0.8,2.5-1.7,5-2.7,7.5
		c-0.9,2.5-2.1,4.9-3.5,7.1c1.1-2.4,1.9-4.9,2.6-7.4c0.8-2.5,1.4-5,2.1-7.6s1.3-5.1,1.9-7.6s1.2-5.1,1.7-7.6
		c1-5.1,1.5-10.3,1.6-15.5s-0.4-10.5-1.6-15.6C228.3,507.4,229.3,512.6,229.5,517.9z"/>
	<path class="st1" d="M221,513.1c0.7,6.7,0,13.6-1.8,20.1c-0.6,2.2-1.3,4.2-2,6.4c-1.4,4.2-2.8,8.4-4.5,12.5c0.8-4.4,1.9-8.7,3-13
		c0.5-2.1,1.2-4.3,1.7-6.4c0.6-2.1,1-4.2,1.3-6.4c0.7-4.3,0.9-8.7,0.8-13.1c-0.1-4.4-0.6-8.8-1.5-13.1
		C219.6,504.2,220.7,508.6,221,513.1z"/>
	<path class="st1" d="M212.5,501.9c1,4.7,1.6,9.5,1.7,14.4c0,1.2,0,2.4-0.1,3.6s-0.2,2.4-0.4,3.6c-0.5,2.4-1,4.7-1.6,7l-3.6,13.9
		c0.4-4.8,1.1-9.5,2.1-14.2c0.2-1.2,0.4-2.3,0.7-3.5s0.5-2.3,0.6-3.5s0.3-2.3,0.3-3.5s0.1-2.3,0.1-3.5c-0.1-4.7-0.5-9.4-1.2-14.1
		c-0.7-4.7-1.6-9.4-2.6-14C210.1,492.5,211.5,497.2,212.5,501.9z"/>
	<path class="st1" d="M202.1,489c1.6,4.8,2.7,9.7,3.4,14.8c0.1,1.3,0.3,2.5,0.4,3.8s0.1,2.5,0.2,3.8c0.1,1.3,0,2.5,0,3.8
		s-0.1,2.5-0.1,3.8c-0.2,5-0.4,10-1.1,15c-0.2-5-0.4-10-0.4-15c0.1-5-0.2-9.9-0.8-14.9c-0.7-4.9-1.6-9.8-2.9-14.6s-2.7-9.6-4.3-14.3
		C198.7,479.5,200.6,484.2,202.1,489z"/>
	<path class="st1" d="M191.2,476.1c1.3,5.2,2.6,10.5,3.7,15.8s2.1,10.6,2.8,16c0.4,2.7,0.7,5.4,0.9,8.1c0.3,2.7,0.3,5.4,0.1,8.1
		c-0.2-2.7-0.6-5.3-1.1-8s-0.9-5.3-1.4-8c-1-5.3-2.1-10.6-3.2-15.8s-2.2-10.5-3.2-15.9c-1-5.3-2-10.6-2.9-16
		C188.4,465.6,189.9,470.8,191.2,476.1z"/>
	<path class="st1" d="M181.9,446.5c0,0.8-0.1,1.7-0.1,2.5l-0.3,5c-0.2,3.3-0.5,6.6-0.6,9.9s-0.2,6.6,0,9.9c0.1,3.3,0.4,6.6,0.9,9.9
		c-1.3-3.1-2.1-6.4-2.5-9.8c-0.4-3.3-0.5-6.7-0.4-10.1s0.5-6.7,1-10c0.2-1.6,0.6-3.3,0.9-4.9l0.5-2.4l0.3-1.2
		c0.1-0.4,0.2-0.8,0.1-1.2C181.9,444.9,181.9,445.7,181.9,446.5z"/>
	<path class="st1" d="M174,425.6c-0.8,2.1-1.4,4.2-1.9,6.4c-1,4.3-1.7,8.7-1.9,13.2c-0.5,8.9,0.4,17.8,2.7,26.4
		c1,4.3,2.2,8.7,3.4,12.9s2.5,8.5,4,12.7c2.9,8.4,6.2,16.7,9.4,25s6.4,16.7,9.4,25.1c1.5,4.2,3.1,8.3,4.8,12.4s3.6,8.1,5.5,12.1
		c3.8,8,8,15.9,11.8,24c1.9,4.1,3.6,8.2,5,12.5c1.5,4.2,2.3,8.7,2.6,13.1c-0.5-4.4-1.5-8.8-3.1-13s-3.4-8.2-5.4-12.2
		c-3.9-8-8.3-15.8-12.3-23.8c-4.1-8-7.7-16.2-10.7-24.6c-3-8.4-6.3-16.7-9.6-25c-6.5-16.6-12.8-33.5-16.5-51
		c-2.1-8.8-2.8-17.8-2.2-26.8c0.4-4.5,1.2-8.9,2.4-13.2c1.1-4.3,2.9-8.5,5.1-12.4C175.6,421.4,174.8,423.5,174,425.6z"/>
	<path class="st1" d="M168.4,408.8c-0.5,0.8-0.9,1.7-1.2,2.5s-0.7,1.7-1.1,2.6s-0.6,1.8-1,2.7c-0.2,0.4-0.3,0.9-0.5,1.3l-0.4,1.4
		c-0.2,0.9-0.5,1.8-0.7,2.7l-0.6,2.8c-1.4,7.4-2,14.9-1.5,22.4v1.4l0.1,1.4l0.2,2.8l0.2,2.8l0.4,2.8c0.3,1.9,0.5,3.7,0.8,5.6l1,5.6
		c1.4,7.4,3.3,14.7,5.6,21.8c2.4,7.2,5.4,14.1,8.9,20.9c3.5,6.7,7.3,13.3,10.1,20.4c1.3,3.6,2.4,7.2,3.5,10.9
		c1.1,3.6,2.1,7.3,3.1,10.9c2,7.3,3.9,14.6,5.6,22l0,0l-0.2,8.3l-0.2-8.3l0,0c-2-7.3-4.2-14.5-6.4-21.8c-1.1-3.6-2.2-7.2-3.4-10.8
		s-2.3-7.2-3.7-10.7c-2.8-6.9-6.7-13.4-10.2-20.2c-3.6-6.7-6.6-13.7-9.1-20.9c-2.3-7.2-4.2-14.6-5.5-22.1
		c-1.4-7.5-2.2-15.1-2.4-22.7c-0.2-7.6,0.5-15.2,2.1-22.7l0.7-2.8c0.2-0.9,0.6-1.8,0.8-2.7l0.4-1.4c0.2-0.4,0.3-0.9,0.5-1.3
		c0.4-0.9,0.7-1.8,1.1-2.6c1.4-3.5,3.4-6.8,5.9-9.7C170.3,405.5,169.3,407.1,168.4,408.8z"/>
	<path class="st1" d="M168,524.1c2,8.7,4.5,17.3,7.2,25.8l2.2,6.3l2.3,6.3c1.6,4.1,3.3,8.3,5,12.4c3.4,8.3,6.3,16.8,8.7,25.5
		c2.3,8.7,3.8,17.6,4.3,26.6c0.4,9-0.1,18-1.6,26.9l-1.1,6.6c-0.3,2.2-0.6,4.4-0.8,6.6c-0.5,4.4-0.6,8.9-0.9,13.3s-0.4,9-1.8,13.3
		s-4.5,7.8-7.9,10.8c3.2-3.2,6-6.8,7.4-11s1.3-8.8,1.4-13.2s0.2-9,0.6-13.4c0.2-2.2,0.4-4.5,0.7-6.7l0.9-6.7c0.6-4.4,1-8.9,1.3-13.3
		c0.2-4.4,0.2-8.9,0-13.3c-0.6-8.9-2.1-17.6-4.4-26.2c-2.4-8.6-5.2-17-8.5-25.3c-1.6-4.1-3.3-8.3-4.9-12.5l-2.3-6.3l-2.1-6.4
		c-5.4-17.1-9-34.7-10.8-52.5C164.2,506.6,166,515.4,168,524.1z"/>
	<path class="st1" d="M180.4,577.9l1.3,4.7c0.5,1.6,0.8,3.2,1.2,4.8c0.8,3.2,1.4,6.4,2.1,9.6c0.3,1.6,0.6,3.2,0.9,4.8
		s0.6,3.2,0.8,4.8c0.5,3.2,1,6.5,1.4,9.7c0.8,6.5,1.5,13,2.2,19.5s1,13.1,0.8,19.6c-0.4,6.6-1.4,13.1-2.9,19.5
		c-1.4,6.3-3,12.7-4.6,19c1.2-6.4,2.5-12.8,3.6-19.2c1.3-6.4,2-12.8,2.3-19.3c0-6.5-0.3-13-1.1-19.4c-0.7-6.5-1.5-12.9-2.4-19.4
		c-0.4-3.2-0.8-6.4-1.3-9.7c-0.2-1.6-0.5-3.2-0.8-4.8s-0.5-3.2-0.8-4.8c-1.2-6.4-2.7-12.7-4.4-19s-3.6-12.5-5.8-18.6
		c-2.1-6.1-4.7-12.2-7.5-18C172,553.1,176.7,565.4,180.4,577.9z"/>
	<path class="st1" d="M165.4,603.5c0.8,5.1,1.5,10.3,2.4,15.4c0.4,2.6,0.9,5.1,1.3,7.7l0.7,3.8l0.8,3.8c1.1,5.1,2.2,10.2,3.7,15.2
		c-2.2-4.8-4-9.7-5.3-14.8c-1.4-5-2.4-10.2-3.3-15.3s-1.5-10.3-2-15.5s-0.8-10.4-0.8-15.7L165.4,603.5z"/>
	<path class="st1" d="M172.4,666.5c0.9,3.6,1.3,7.3,1.2,11c0,0.9,0,1.9-0.2,2.8s-0.3,1.9-0.5,2.8c-0.5,1.8-1.1,3.6-1.8,5.3
		c-0.7,1.7-1.4,3.4-2.2,5c-0.4,0.8-0.9,1.6-1.4,2.4c-0.5,0.8-1.1,1.5-1.8,2c0.6-0.7,1-1.5,1.4-2.3s0.7-1.7,1-2.5
		c0.6-1.7,1.2-3.4,1.7-5.1s1.1-3.5,1.4-5.2c0.2-0.9,0.3-1.7,0.4-2.6s0.2-1.8,0.2-2.6c0.1-3.6-0.2-7.1-0.8-10.7
		c-0.5-3.5-1.3-7.1-2.2-10.6C170.3,659.4,171.6,662.9,172.4,666.5z"/>
</g>
</svg>
