<?xml version="1.0" encoding="UTF-8"?>
<svg width="259px" height="147px" viewBox="0 0 259 147" version="1.1" xmlns="http://www.w3.org/2000/svg" xmlns:xlink="http://www.w3.org/1999/xlink">
    <!-- Generator: Sketch 46.2 (44496) - http://www.bohemiancoding.com/sketch -->
    <title>Page 1</title>
    <desc>Created with Sketch.</desc>
    <defs></defs>
    <g id="Page-1" stroke="none" stroke-width="1" fill="none" fill-rule="evenodd">
        <g id="002-Conceptual" transform="translate(-55.000000, -449.000000)">
            <g id="Page-1" transform="translate(184.500000, 522.279528) scale(-1, 1) translate(-184.500000, -522.279528) translate(57.000000, 451.000000)">
                <path d="M40.2817874,100.939489 C35.7259809,105.451766 28.1684915,107.728624 22.6287179,108.588701 C10.0510518,110.54264 0.650860399,107.36661 1.11911983,105.594069 C-0.186872837,110.532475 9.96548946,114.07912 13.7395671,114.316814 C22.3961439,114.857099 30.425782,113.744472 38.6195442,110.875724 C41.166191,109.98359 44.812703,108.060927 45.9335698,105.376704 C47.2481187,102.222567 42.8712154,97.7579855 43.4437053,96.3779528 C42.742094,98.0683951 41.6445623,99.5899496 40.2817874,100.939489" id="Fill-1" fill="#E0DDE4"></path>
                <path d="M125.460196,127.901243 C114.198276,139.477174 95.906827,137.878753 80.3149606,136.787391 C83.2791166,140.533356 89.429077,140.996056 93.8721891,141.44958 C102.162148,142.294678 110.04159,142.97611 118.415838,142.255673 C123.44585,141.822035 128.912134,140.985349 132.37578,136.964824 C134.291789,134.739271 134.922394,131.171504 134.291008,128.364708 C134.145064,127.716162 130.437918,121.112161 129.445183,122.736584 C128.247189,124.696753 126.912617,126.408363 125.460196,127.901243" id="Fill-3" fill="#E0DDE4"></path>
                <path d="M73.4623224,75.0911291 C72.2890351,79.0951627 77.2836215,81.3967884 80.5252333,82.4062338 C87.2016859,84.4858714 96.0600818,85.5208155 103.191009,85.307077 C111.216201,85.06634 120.322703,84.4723721 128.01245,82.4534812 C131.851526,81.4462857 135.920931,79.7768759 137.305225,76.1560716 C138.230406,73.7359524 136.41096,60.5951625 131.897901,61.2648763 C130.835914,61.4268676 130.454093,63.7427424 129.755376,64.4469544 C126.689989,67.5337875 121.519178,70.9873509 117.580396,72.7947532 C103.457666,79.275903 88.2273461,74.4971612 73.4623224,75.0911291" id="Fill-5" fill="#E0DDE4"></path>
                <path d="M199.663301,113.817752 C198.980503,113.96283 198.328034,114.095362 197.72067,114.223188 C189.020043,116.051178 180.332638,115.87081 171.673228,113.984004 C172.130501,117.196123 173.842941,118.74023 176.995635,120.049859 C183.881168,122.910653 193.616102,122.560112 200.942576,122.331907 C205.325552,122.196239 210.536751,121.774334 214.190267,119.042151 C216.229331,117.517649 218.029648,114.453745 217.840673,111.838409 C217.734132,110.378212 213.900195,105.889401 214.059618,105.413386 C212.238304,110.848737 205.023036,112.68457 199.663301,113.817752" id="Fill-7" fill="#E0DDE4"></path>
                <path d="M254.918653,76.67657 C256.366902,85.5466997 238.073796,87.6968547 232.201445,88.0618776 C221.215967,88.7460178 210.290769,88.3610038 199.550989,85.0728364 C195.302386,83.7704525 187.8246,80.5740961 188.832575,74.9373433 C201.153372,79.7833366 219.965345,80.7399483 233.049181,77.3296129 C240.559778,75.3712245 242.643639,73.6482869 248.003227,68.2677165 C250.339654,69.2420981 252.293798,71.2330646 253.577993,73.3276887 C254.321193,74.5382615 254.751547,75.6525808 254.918653,76.67657" id="Fill-9" fill="#E0DDE4"></path>
                <path d="M189.489725,49.6188823 C199.089081,48.1483199 209.613545,45.4594705 217.397433,39.3139768 C222.014483,35.6685175 225.351979,29.7290749 225.826889,23.7598606 C226.089441,20.4552083 225.490977,18.2998981 223.705625,15.5358361 C223.148861,14.673242 217.527164,9.68257456 217.76655,9.03543307 C213.907039,19.4484567 206.411958,26.4737808 196.804108,31.4762002 C179.75446,40.3520669 160.342618,38.0643513 142.55937,33.0736838 C142.435816,50.4250671 178.757536,51.2641573 189.489725,49.6188823" id="Fill-11" fill="#E0DDE4"></path>
                <path d="M189.181156,48.6066589 C198.824151,47.1469029 209.39646,44.4778125 217.215734,38.377479 C224.25851,32.8829791 229.327851,20.2872368 223.01115,12.8321377 C213.753688,1.90768772 194.580178,-0.825952323 181.183466,0.199843187 C175.177054,0.66024572 169.203222,2.10055905 163.310065,3.29667239 C150.996261,5.79544493 135.633095,16.5068032 140.455756,31.0786989 C146.365978,48.9371844 177.238146,50.4156053 189.181156,48.6066589 Z" id="Stroke-13" stroke="#364066" stroke-width="3" stroke-linecap="round" stroke-linejoin="round"></path>
                <path d="M140.551181,29.1849744 C136.399557,28.9662276 129.943766,29.2536783 125.771521,30.056803 C115.844587,31.9686663 101.206216,41.8730816 102.47935,52.2047244" id="Stroke-15" stroke="#364066" stroke-width="3" stroke-linecap="round" stroke-linejoin="round"></path>
                <path d="M97.3818898,46.1811024 C98.1751542,47.2737089 100.786381,53.5595884 102.89422,56.2204724 C105.566228,52.5348209 109.12345,49.0526862 111.437008,47.8882502" id="Stroke-17" stroke="#364066" stroke-width="3" stroke-linecap="round" stroke-linejoin="round"></path>
                <path d="M218.858268,38.1496063 C227.893303,43.8147199 229.624144,52.2453384 228.877585,59.205491 C226.707077,57.1338963 224.345756,55.0662 222.069506,53.1949817 C224.137451,55.88018 227.188882,58.2316778 229.655151,60.2362205 C232.518154,57.1876939 235.530627,54.0159787 236.929134,50.0521145" id="Stroke-19" stroke="#364066" stroke-width="3" stroke-linecap="round" stroke-linejoin="round"></path>
                <path d="M71.6906572,69.7165571 C70.2291807,74.990061 72.6418135,80.2467751 79.2860113,82.3546503 C85.9556864,84.4709204 94.8032934,85.5240948 101.926157,85.3065914 C109.942275,85.0608507 119.038479,84.4564202 126.71953,82.40273 C130.554265,81.3770297 134.619069,79.6789767 136.001797,75.9943925 C137.083429,73.1111367 136.492816,66.831775 134.483961,64.3339199 C131.910744,61.1377645 129.242565,60.3020935 125.416322,58.7810959 C120.256762,56.7296953 114.542876,56.265688 108.970273,56.2336348 C99.0557034,56.1763971 82.4992521,55.9924732 75.3470504,63.511986 C73.5088173,65.4443321 72.2835858,67.581971 71.6906572,69.7165571 Z" id="Stroke-21" stroke="#364066" stroke-width="3" stroke-linecap="round" stroke-linejoin="round"></path>
                <path d="M254.960313,76.4661226 C254.915443,76.9042905 254.838631,77.3523648 254.726836,77.8133936 C252.502338,87.0149196 239.025305,87.6085419 232.103125,88.053568 C221.154794,88.7576848 210.265022,88.3614286 199.563097,84.9772483 C195.670036,83.745806 190.750284,81.7660491 189.413304,77.4666695 C185.822927,65.9158015 197.361415,62.2161404 205.888276,61.1279599 C219.126508,59.4385369 233.899454,59.7982156 246.280589,65.3054146 C250.451998,67.1617224 255.498755,71.1677201 254.960313,76.4661226 Z" id="Stroke-23" stroke="#364066" stroke-width="3" stroke-linecap="round" stroke-linejoin="round"></path>
                <path d="M78.3070866,82.3228346 C75.1763467,91.9270088 59.373119,103.823595 49.4427546,101.624351 C51.5968906,98.9764898 53.8148874,96.3779528 56.0515753,93.8044694 C52.7899984,96.3685576 49.8383804,99.4517269 47.1850394,102.619452 C51.8258551,104.702823 55.6341433,108.166495 60.1464585,110.433071" id="Stroke-25" stroke="#364066" stroke-width="3" stroke-linecap="round" stroke-linejoin="round"></path>
                <path d="M107.42126,86.3385827 C106.535792,93.4346984 107.25113,107.977911 108.099406,115.452756 C104.79097,113.808845 102.345844,110.288536 100.393701,107.2617 C104.161884,113.621355 105.384447,112.934392 108.099406,115.452756 C109.871924,112.335175 112.17145,109.405833 114.448819,106.558988" id="Stroke-27" stroke="#364066" stroke-width="3" stroke-linecap="round" stroke-linejoin="round"></path>
                <path d="M133.523622,82.3228346 C136.048697,87.7660253 140.99862,92.1010494 147.308199,96.7437253 C154.084723,101.730475 160.522498,105.008479 171.673228,106.540539 C170.270064,104.728725 166.230721,101.408874 164.645751,99.8008704 C166.532953,102.089273 169.292666,104.381551 171.673228,106.540539 C166.917541,109.438046 162.853336,110.433071 157.414714,110.433071" id="Stroke-29" stroke="#364066" stroke-width="3" stroke-linecap="round" stroke-linejoin="round"></path>
                <path d="M116.154909,118.624959 C108.751827,118.27366 101.074528,118.349385 93.989816,120.417361 C88.5689968,121.998984 78.3950844,124.62123 79.3773077,132.490312 C80.3161521,140.010437 88.3954811,140.81452 94.2314987,141.42656 C102.459556,142.289192 110.28016,142.984763 118.591876,142.249378 C123.584328,141.806743 129.009795,140.953478 132.447577,136.848753 C135.494173,133.211644 135.268758,125.476837 131.275571,122.294855 C126.9919,118.881797 121.317004,118.869306 116.154909,118.624959 Z" id="Stroke-31" stroke="#364066" stroke-width="3" stroke-linecap="round" stroke-linejoin="round"></path>
                <path d="M26.3906776,90.3543611 C18.6584466,90.3391989 -6.5477879,95.9984891 1.60219167,108.137344 C4.09936529,111.855873 8.96326316,113.080979 13.2269386,113.338736 C21.2123035,113.823168 44.1053912,113.047622 45.129574,102.390871 C46.0512609,92.7727316 33.3627304,90.3687652 26.3906776,90.3543611 Z" id="Stroke-33" stroke="#364066" stroke-width="3" stroke-linecap="round" stroke-linejoin="round"></path>
                <path d="M194.961565,101.664885 C190.267368,101.346554 185.56019,101.17859 180.946927,101.950424 C175.310531,102.894222 169.006044,106.210311 168.666272,112.987258 C168.497531,116.348137 172.767205,119.916172 175.290679,121.005539 C182.051759,123.922513 191.608894,123.56579 198.802133,123.33304 C203.106165,123.19387 208.222596,122.763562 211.808908,119.977759 C214.134628,118.170946 216.826843,112.966462 215.490661,109.785544 C211.905876,101.253774 202.158622,102.152781 194.961565,101.664885 Z" id="Stroke-35" stroke="#364066" stroke-width="3" stroke-linecap="round" stroke-linejoin="round"></path>
            </g>
        </g>
    </g>
</svg>