<?xml version="1.0" encoding="UTF-8"?>
<svg width="267px" height="259px" viewBox="0 0 267 259" version="1.1" xmlns="http://www.w3.org/2000/svg" xmlns:xlink="http://www.w3.org/1999/xlink">
    <!-- Generator: Sketch 46.2 (44496) - http://www.bohemiancoding.com/sketch -->
    <title>illu_codata_pie</title>
    <desc>Created with Sketch.</desc>
    <defs></defs>
    <g id="Page-1" stroke="none" stroke-width="1" fill="none" fill-rule="evenodd">
        <g id="003-Technical" transform="translate(-871.000000, -225.000000)">
            <g id="illu_codata_pie" transform="translate(871.000000, 226.000000)">
                <path d="M124.501235,130 L30,159.368981 C39.8648371,190.815364 62.6743663,216.472109 92.133017,230 L97.9698457,217.799152 L133,138.576885 C129.177555,136.942033 126.116502,133.853359 124.501235,130 Z" id="Combined-Shape" fill-opacity="0.7" fill="#00D72B"></path>
                <path d="M124.427697,130 L75,145.03868 C81.0741757,162.933253 94.6192744,177.453416 111.98428,185 L133,138.469529 C129.14448,136.85514 126.056941,133.805127 124.427697,130 Z" id="Combined-Shape" fill="#00D72B"></path>
                <path d="M152.721292,133 L228.889949,172.870907 L229,172.962399 C211.436805,204.590601 177.655383,226 138.865129,226 C124.34571,226 110.528052,223.000439 98,217.588174 L133.146806,138.587642 C135.098173,139.427008 137.249096,139.891999 139.508806,139.891999 C144.98025,139.891999 149.813908,137.165891 152.721292,133 Z" id="Combined-Shape" fill="#FAFF00" opacity="0.7"></path>
                <path d="M152.911453,115 L226,63.2885701 C206.993707,35.3446092 174.999132,17 138.733621,17 C113.881638,17 91.0353171,25.6147551 73,40.0299399 L128.489533,111.791273 C131.344391,109.130774 135.169527,107.503829 139.373443,107.503829 C145.074427,107.503829 150.078818,110.495848 152.911453,115 Z" id="Combined-Shape" fill-opacity="0.7" fill="#FF0151"></path>
                <path d="M152.766349,116 L205,78.4318277 C190.531791,57.0480383 166.10761,43 138.414618,43 C119.326868,43 101.792076,49.6739871 88,60.8239747 L127.964245,112.736676 C130.846059,109.96946 134.753543,108.269602 139.056564,108.269602 C144.862558,108.269602 149.948452,111.364305 152.766349,116 Z" id="Combined-Shape" fill="#FF0151"></path>
                <path d="M152.020021,132.849628 L216.982058,167.161798 C224.323134,154.112331 228.51001,139.05403 228.51001,123.018678 C228.51001,104.192464 222.738904,86.7129986 212.867849,72.2499936 L152.578663,115.325721 C154.059353,117.755006 154.912267,120.608269 154.912267,123.660568 C154.912267,127.078431 153.842817,130.246728 152.020021,132.849628 Z" id="Combined-Shape" fill-opacity="0.7" fill="#00C5D7"></path>
                <path d="" id="Combined-Shape" stroke="#979797" fill="#D8D8D8"></path>
                <path d="M152.024833,133 L205,160.822151 C191.800238,184.211461 166.744485,200 138.007142,200 C127.360941,200 117.220019,197.833104 108,193.915615 L132.536344,138.581552 C134.479139,139.420003 136.620612,139.884487 138.870393,139.884487 C144.3178,139.884487 149.130222,137.16135 152.024833,133 Z" id="Combined-Shape" fill="#FAFF00"></path>
                <circle id="Oval-3" stroke="#FFFFFF" stroke-dasharray="2,3" cx="139" cy="123" r="72"></circle>
                <circle id="Oval-3" stroke="#FFFFFF" opacity="0.300101902" stroke-dasharray="2,3" cx="137" cy="123" r="123"></circle>
                <path d="M139,168 C114.147186,168 94,147.852814 94,123 C94,98.1471863 114.147186,78 139,78 C163.852814,78 184,98.1471863 184,123 C184,147.852814 163.852814,168 139,168 Z M139.642857,139.714286 C148.518862,139.714286 155.714286,132.518862 155.714286,123.642857 C155.714286,114.766852 148.518862,107.571429 139.642857,107.571429 C130.766852,107.571429 123.571429,114.766852 123.571429,123.642857 C123.571429,132.518862 130.766852,139.714286 139.642857,139.714286 Z" id="Combined-Shape" fill-opacity="0.4" fill="#FFFFFF"></path>
                <path d="M139,125 L254,43" id="Path-8" stroke="#FFFFFF" opacity="0.300101902" stroke-dasharray="2,3"></path>
                <path d="M139,126 L51,15" id="Path-8" stroke="#FFFFFF" opacity="0.300101902" stroke-dasharray="2,3"></path>
                <path d="M139,125 L4,167" id="Path-8" stroke="#FFFFFF" opacity="0.300101902" stroke-dasharray="2,3"></path>
                <path d="M139,125 L81,254" id="Path-8" stroke="#FFFFFF" opacity="0.300101902" stroke-dasharray="2,3"></path>
                <path d="M139,125 L263,193" id="Path-8" stroke="#FFFFFF" opacity="0.300101902" stroke-dasharray="2,3"></path>
                <circle id="Oval-4" fill="#FFFFFF" opacity="0.3" cx="255" cy="43" r="3"></circle>
                <circle id="Oval-4" fill="#FFFFFF" opacity="0.3" cx="264" cy="193" r="3"></circle>
                <circle id="Oval-4" fill="#FFFFFF" opacity="0.3" cx="80" cy="255" r="3"></circle>
                <circle id="Oval-4" fill="#FFFFFF" opacity="0.3" cx="3" cy="167" r="3"></circle>
                <circle id="Oval-4" fill="#FFFFFF" opacity="0.3" cx="50" cy="15" r="3"></circle>
            </g>
        </g>
    </g>
</svg>